<svg version="1.1" xmlns="http://www.w3.org/2000/svg" xmlns:xlink="http://www.w3.org/1999/xlink" width="104.4717" height="106.53789" viewBox="0,0,104.4717,106.53789"><g transform="translate(-194.92628,-126.73107)"><g data-paper-data="{&quot;isPaintingLayer&quot;:true}" fill-rule="nonzero" stroke-linecap="butt" stroke-linejoin="miter" stroke-miterlimit="10" stroke-dasharray="" stroke-dashoffset="0" style="mix-blend-mode: normal"><path d="M194.92628,233.26896v-106.53789h90.14744v106.53789z" fill="none" stroke="none" stroke-width="NaN"/><g><path d="M227.74746,187.45778l17.56063,-3.97307l1.87738,8.29788l-17.56063,3.97307z" fill="#8a5f00" stroke="#000000" stroke-width="1.5"/><path d="M246.65192,181.355c0,0 15.85726,-0.74776 23.57515,-2.49392c6.2747,-1.41964 20.79468,-6.91959 26.5176,-8.37031c1.4336,-0.36342 2.08035,0.13249 1.77545,1.1684c-0.64109,2.1783 -1.70086,5.7792 -2.10533,7.15344c-0.30965,1.05217 -1.18921,2.5655 -2.02774,2.85172c-3.83324,1.3085 -14.99477,5.46858 -21.35441,6.90743c-7.81518,1.76817 -24.02308,3.20381 -24.02308,3.20381z" fill="#c9c9c9" stroke="#000000" stroke-width="1.5"/><path d="M239.02087,185.99624l2.8946,-0.65489l1.42194,6.28484l-2.8946,0.65489z" fill="#d18f00" stroke="none" stroke-width="0"/><path d="M233.70205,187.15254l2.89461,-0.6549l1.42194,6.28484l-2.89461,0.6549z" fill="#d18f00" stroke="none" stroke-width="0"/><path d="M228.74234,188.31695l2.38476,-0.53955l1.42194,6.28484l-2.38476,0.53955z" fill="#d18f00" stroke="none" stroke-width="0"/><path d="M246.51742,181.56813c0,0 15.58127,-1.96762 23.29916,-3.7138c6.2747,-1.41964 21.00992,-5.96824 26.74799,-7.35199c1.4374,-0.34664 2.02172,-0.12659 1.62287,0.49398c-0.83871,1.30493 -0.76701,3.87638 -1.29613,4.69965c-0.40512,0.63032 -2.87049,1.16477 -3.7184,1.40954c-3.87612,1.11896 -15.19652,4.57682 -21.55615,6.01571c-7.81518,1.76817 -23.80624,4.16229 -23.80624,4.16229z" fill="#989898" stroke="none" stroke-width="0"/><path d="M246.7058,181.38507c0,0 15.85726,-0.74776 23.57515,-2.49392c6.2747,-1.41964 20.79468,-6.91961 26.5176,-8.37031c1.4336,-0.36342 2.08034,0.13248 1.77547,1.1684c-0.64109,2.1783 -1.70088,5.7792 -2.10533,7.15344c-0.30966,1.05217 -1.18921,2.5655 -2.02774,2.85172c-3.83324,1.3085 -14.99477,5.46858 -21.35441,6.90743c-7.81518,1.76817 -24.02309,3.20385 -24.02309,3.20385z" fill="none" stroke="#000000" stroke-width="1.5"/><path d="M242.71574,177.17425l5.59624,-1.26615l4.75896,21.03416l-5.59624,1.26615z" fill="#382700" stroke="#000000" stroke-width="1.5"/></g></g></g></svg>