<svg version="1.1" xmlns="http://www.w3.org/2000/svg" xmlns:xlink="http://www.w3.org/1999/xlink" width="90.14744" height="106.53789" viewBox="0,0,90.14744,106.53789"><g transform="translate(-194.92628,-126.73107)"><g data-paper-data="{&quot;isPaintingLayer&quot;:true}" fill-rule="nonzero" stroke-linecap="butt" stroke-linejoin="miter" stroke-miterlimit="10" stroke-dasharray="" stroke-dashoffset="0" style="mix-blend-mode: normal"><path d="M194.92628,233.26896v-106.53789h90.14744v106.53789z" fill="none" stroke="none" stroke-width="NaN"/><g><path d="M238.13664,203.89353l-1.2901,-17.95819l8.48573,-0.60961l1.2901,17.95819z" fill="#8a5f00" stroke="#000000" stroke-width="1.5"/><path d="M234.94285,184.28684c0,0 1.64274,-15.78965 1.07574,-23.68228c-0.46098,-6.41676 -3.71739,-21.59815 -4.29197,-27.47406c-0.14394,-1.47193 0.44349,-2.03683 1.42184,-1.57979c2.05728,0.96104 5.45813,2.54969 6.75602,3.15599c0.99373,0.4642 2.35774,1.56109 2.51477,2.43311c0.71783,3.9863 3.15407,15.64609 3.62128,22.14971c0.57415,7.99211 -0.4412,24.23176 -0.4412,24.23176z" fill="#c9c9c9" stroke="#000000" stroke-width="1.5"/><path d="M238.38513,192.52849l-0.21265,-2.96013l6.42713,-0.46172l0.21265,2.96013z" fill="#d18f00" stroke="none" stroke-width="0"/><path d="M238.72934,197.96066l-0.21265,-2.96014l6.42713,-0.46172l0.21265,2.96014z" fill="#d18f00" stroke="none" stroke-width="0"/><path d="M239.13549,203.03899l-0.1752,-2.43876l6.42713,-0.46172l0.1752,2.43876z" fill="#d18f00" stroke="none" stroke-width="0"/><path d="M235.13336,184.45183c0,0 0.39525,-15.70004 -0.17175,-23.59266c-0.46098,-6.41676 -2.74449,-21.66805 -3.2506,-27.54887c-0.12678,-1.47316 0.17854,-2.0178 0.73215,-1.53026c1.16414,1.02521 3.71718,1.3406 4.45162,1.98738c0.56231,0.49521 0.72036,3.01288 0.83498,3.88794c0.52401,4.00022 2.24214,15.71159 2.70936,22.21521c0.57415,7.99211 0.53899,24.16135 0.53899,24.16135z" fill="#989898" stroke="none" stroke-width="0"/><path d="M234.98067,184.23809c0,0 1.64274,-15.78965 1.07574,-23.68228c-0.46098,-6.41676 -3.7174,-21.59816 -4.29197,-27.47406c-0.14394,-1.47193 0.44348,-2.03684 1.42185,-1.57981c2.05728,0.96104 5.45813,2.54971 6.75602,3.15599c0.99372,0.4642 2.35774,1.56109 2.51476,2.4331c0.71783,3.9863 3.15407,15.64609 3.62128,22.14971c0.57415,7.99211 -0.44116,24.23177 -0.44116,24.23177z" fill="none" stroke="#000000" stroke-width="1.5"/><path d="M230.21826,187.55035l-0.41113,-5.72294l21.51035,-1.54529l0.41113,5.72294z" fill="#382700" stroke="#000000" stroke-width="1.5"/></g></g></g></svg>