<svg version="1.1" xmlns="http://www.w3.org/2000/svg" xmlns:xlink="http://www.w3.org/1999/xlink" width="525.23506" height="229.08584" viewBox="0,0,525.23506,229.08584"><g transform="translate(26.0625,-201.12173)"><g data-paper-data="{&quot;isPaintingLayer&quot;:true}" fill-rule="nonzero" stroke="none" stroke-linecap="butt" stroke-linejoin="miter" stroke-miterlimit="10" stroke-dasharray="" stroke-dashoffset="0" style="mix-blend-mode: normal"><g><g><path d="M-25.72916,430.09449v-66h66v66z" fill="#0a5fce" stroke-width="NaN"/><path d="M40.2079,427.92968l-42.70814,-63.69826l24.83402,-13.7221l18.17211,28.46335l-0.34004,22.08184z" fill="#0070ff" stroke-width="0"/></g><path d="M-25.45225,378.00931l36.70814,52.19826l-33.58401,-0.02789l-3.42212,-3.21335l0.34004,-22.08184z" data-paper-data="{&quot;index&quot;:null}" fill="#0070ff" stroke-width="0"/></g><g><path d="M-25.5625,364.92783v-66h66v66z" fill="#0a5fce" stroke-width="NaN"/><path d="M-2.62543,365.01301l-22.95814,-36.94826l24.83402,-13.7221l31.70814,50.44826z" fill="#0070ff" stroke-width="0"/><g stroke-width="0"><path d="M-26.0625,308.92783v-10.5h66.5v10.5z" fill="#49b6ff"/><path d="M-26.0625,318.92783v-10.5h66.5v10.5z" fill="#0063ce"/><path d="M-26.0625,329.42783v-10.5h66.5v10.5z" fill="#0007b1"/></g></g><g><path d="M39.9375,364.92783v-66h66v66z" fill="#0a5fce" stroke-width="NaN"/><path d="M62.87457,365.01301l-22.95814,-36.94826l24.83401,-13.7221l31.70814,50.44826z" fill="#0070ff" stroke-width="0"/><g stroke-width="0"><path d="M39.4375,308.92783v-10.5h66.5v10.5z" fill="#49b6ff"/><path d="M39.4375,318.92783v-10.5h66.5v10.5z" fill="#0063ce"/><path d="M39.4375,329.42783v-10.5h66.5v10.5z" fill="#0007b1"/></g></g><g><g><path d="M39.9375,430.09449v-66h66v66z" fill="#0a5fce" stroke-width="NaN"/><path d="M105.87457,427.92968l-42.70814,-63.69826l24.83402,-13.7221l18.17211,28.46335l-0.34004,22.08184z" fill="#0070ff" stroke-width="0"/></g><path d="M40.21442,378.00931l36.70814,52.19826l-33.58401,-0.02789l-3.42212,-3.21335l0.34004,-22.08184z" data-paper-data="{&quot;index&quot;:null}" fill="#0070ff" stroke-width="0"/></g><g><g><path d="M105.27084,430.09449v-66h66v66z" fill="#0a5fce" stroke-width="NaN"/><path d="M171.2079,427.92968l-42.70814,-63.69826l24.83401,-13.7221l18.17211,28.46335l-0.34004,22.08184z" fill="#0070ff" stroke-width="0"/></g><path d="M105.54775,378.00931l36.70814,52.19826l-33.58401,-0.02789l-3.42211,-3.21335l0.34004,-22.08184z" data-paper-data="{&quot;index&quot;:null}" fill="#0070ff" stroke-width="0"/></g><g><path d="M105.4375,364.92783v-66h66v66z" fill="#0a5fce" stroke-width="NaN"/><path d="M128.37457,365.01301l-22.95814,-36.94826l24.83401,-13.7221l31.70814,50.44826z" fill="#0070ff" stroke-width="0"/><g stroke-width="0"><path d="M104.9375,308.92783v-10.5h66.5v10.5z" fill="#49b6ff"/><path d="M104.9375,318.92783v-10.5h66.5v10.5z" fill="#0063ce"/><path d="M104.9375,329.42783v-10.5h66.5v10.5z" fill="#0007b1"/></g></g><g><path d="M170.9375,364.92783v-66h66v66z" fill="#0a5fce" stroke-width="NaN"/><path d="M193.87457,365.01301l-22.95814,-36.94826l24.83401,-13.7221l31.70814,50.44826z" fill="#0070ff" stroke-width="0"/><g stroke-width="0"><path d="M170.4375,308.92783v-10.5h66.5v10.5z" fill="#49b6ff"/><path d="M170.4375,318.92783v-10.5h66.5v10.5z" fill="#0063ce"/><path d="M170.4375,329.42783v-10.5h66.5v10.5z" fill="#0007b1"/></g></g><g><g><path d="M170.9375,430.09449v-66h66v66z" fill="#0a5fce" stroke-width="NaN"/><path d="M236.87457,427.92968l-42.70814,-63.69826l24.83402,-13.7221l18.17211,28.46335l-0.34004,22.08184z" fill="#0070ff" stroke-width="0"/></g><path d="M171.21442,378.00931l36.70814,52.19826l-33.58402,-0.02789l-3.42211,-3.21335l0.34004,-22.08184z" data-paper-data="{&quot;index&quot;:null}" fill="#0070ff" stroke-width="0"/></g><g><g><path d="M236.27084,430.09449v-66h66v66z" fill="#0a5fce" stroke-width="NaN"/><path d="M302.2079,427.92968l-42.70814,-63.69826l24.83401,-13.7221l18.17212,28.46335l-0.34004,22.08184z" fill="#0070ff" stroke-width="0"/></g><path d="M236.54775,378.00931l36.70814,52.19826l-33.58401,-0.02789l-3.42212,-3.21335l0.34004,-22.08184z" data-paper-data="{&quot;index&quot;:null}" fill="#0070ff" stroke-width="0"/></g><g><path d="M236.4375,364.92783v-66h66v66z" fill="#0a5fce" stroke-width="NaN"/><path d="M259.37457,365.01301l-22.95814,-36.94826l24.83401,-13.7221l31.70814,50.44826z" fill="#0070ff" stroke-width="0"/><g stroke-width="0"><path d="M235.9375,308.92783v-10.5h66.5v10.5z" fill="#49b6ff"/><path d="M235.9375,318.92783v-10.5h66.5v10.5z" fill="#0063ce"/><path d="M235.9375,329.42783v-10.5h66.5v10.5z" fill="#0007b1"/></g></g><g><path d="M301.9375,364.92783v-66h66v66z" fill="#0a5fce" stroke-width="NaN"/><path d="M324.87457,365.01301l-22.95814,-36.94826l24.83402,-13.7221l31.70814,50.44826z" fill="#0070ff" stroke-width="0"/><g stroke-width="0"><path d="M301.4375,308.92783v-10.5h66.5v10.5z" fill="#38c700"/><path d="M301.4375,318.92783v-10.5h66.5v10.5z" fill="#1fa700"/><path d="M301.4375,329.42783v-10.5h66.5v10.5z" fill="#157300"/></g></g><g><g><path d="M301.9375,430.09449v-66h66v66z" fill="#0a5fce" stroke-width="NaN"/><path d="M367.87457,427.92968l-42.70814,-63.69826l24.83402,-13.7221l18.17212,28.46335l-0.34004,22.08184z" fill="#0070ff" stroke-width="0"/></g><path d="M302.21442,378.00931l36.70814,52.19826l-33.58402,-0.02789l-3.42212,-3.21335l0.34004,-22.08184z" data-paper-data="{&quot;index&quot;:null}" fill="#0070ff" stroke-width="0"/></g><g><g><path d="M367.27084,430.09449v-66h66v66z" fill="#0a5fce" stroke-width="NaN"/><path d="M433.2079,427.92968l-42.70814,-63.69826l24.83401,-13.7221l18.17212,28.46335l-0.34004,22.08184z" fill="#0070ff" stroke-width="0"/></g><path d="M367.54775,378.00931l36.70814,52.19826l-33.58402,-0.02789l-3.42211,-3.21335l0.34004,-22.08184z" data-paper-data="{&quot;index&quot;:null}" fill="#0070ff" stroke-width="0"/></g><g><path d="M367.4375,364.92783v-66h66v66z" fill="#0a5fce" stroke-width="NaN"/><path d="M390.37457,365.01301l-22.95814,-36.94826l24.83402,-13.7221l31.70814,50.44826z" fill="#0070ff" stroke-width="0"/><g stroke-width="0"><path d="M366.9375,308.92783v-10.5h66.5v10.5z" fill="#38c700"/><path d="M366.9375,318.92783v-10.5h66.5v10.5z" fill="#1fa700"/><path d="M366.9375,329.42783v-10.5h66.5v10.5z" fill="#157300"/></g></g><g><path d="M432.9375,364.92783v-66h66v66z" fill="#0a5fce" stroke-width="NaN"/><path d="M455.87457,365.01301l-22.95814,-36.94826l24.83402,-13.7221l31.70814,50.44826z" fill="#0070ff" stroke-width="0"/><g stroke-width="0"><path d="M432.4375,308.92783v-10.5h66.5v10.5z" fill="#38c700"/><path d="M432.4375,318.92783v-10.5h66.5v10.5z" fill="#1fa700"/><path d="M432.4375,329.42783v-10.5h66.5v10.5z" fill="#157300"/></g></g><g><g><path d="M432.9375,430.09449v-66h66v66z" fill="#0a5fce" stroke-width="NaN"/><path d="M498.87457,427.92968l-42.70814,-63.69826l24.83401,-13.7221l18.17212,28.46335l-0.34004,22.08184z" fill="#0070ff" stroke-width="0"/></g><path d="M433.21442,378.00931l36.70814,52.19826l-33.58402,-0.02789l-3.42212,-3.21335l0.34004,-22.08184z" data-paper-data="{&quot;index&quot;:null}" fill="#0070ff" stroke-width="0"/></g><g><path d="M300.71767,267.62173v-66h66v66z" fill="#0a5fce" stroke-width="NaN"/><path d="M323.65474,267.70691l-22.95814,-36.94826l24.83401,-13.7221l31.70814,50.44826z" fill="#0070ff" stroke-width="0"/><g stroke-width="0"><path d="M300.21767,211.62173v-10.5h66.5v10.5z" fill="#49b6ff"/><path d="M300.21767,221.62173v-10.5h66.5v10.5z" fill="#0063ce"/><path d="M300.21767,232.12173v-10.5h66.5v10.5z" fill="#0007b1"/></g></g><g><path d="M366.21767,267.62173v-66h66v66z" fill="#0a5fce" stroke-width="NaN"/><path d="M389.15474,267.70691l-22.95814,-36.94826l24.83402,-13.7221l31.70814,50.44826z" fill="#0070ff" stroke-width="0"/><g stroke-width="0"><path d="M365.71767,211.62173v-10.5h66.5v10.5z" fill="#49b6ff"/><path d="M365.71767,221.62173v-10.5h66.5v10.5z" fill="#0063ce"/><path d="M365.71767,232.12173v-10.5h66.5v10.5z" fill="#0007b1"/></g></g><g><path d="M431.71767,267.62173v-66h66v66z" fill="#0a5fce" stroke-width="NaN"/><path d="M454.65474,267.70691l-22.95814,-36.94826l24.83402,-13.7221l31.70814,50.44826z" fill="#0070ff" stroke-width="0"/><g stroke-width="0"><path d="M431.21767,211.62173v-10.5h66.5v10.5z" fill="#49b6ff"/><path d="M431.21767,221.62173v-10.5h66.5v10.5z" fill="#0063ce"/><path d="M431.21767,232.12173v-10.5h66.5v10.5z" fill="#0007b1"/></g></g><g><g><path d="M300.24458,329.91999v-66h66v66z" fill="#0a5fce" stroke-width="NaN"/><path d="M366.18165,327.75518l-42.70814,-63.69826l24.83402,-13.7221l18.17212,28.46335l-0.34004,22.08184z" fill="#0070ff" stroke-width="0"/></g><path d="M300.5215,277.83481l36.70814,52.19826l-33.58402,-0.02789l-3.42212,-3.21335l0.34004,-22.08184z" data-paper-data="{&quot;index&quot;:null}" fill="#0070ff" stroke-width="0"/></g><g><g><path d="M365.57792,329.91999v-66h66v66z" fill="#0a5fce" stroke-width="NaN"/><path d="M431.51498,327.75518l-42.70814,-63.69826l24.83401,-13.7221l18.17212,28.46335l-0.34004,22.08184z" fill="#0070ff" stroke-width="0"/></g><path d="M365.85483,277.83481l36.70814,52.19826l-33.58402,-0.02789l-3.42211,-3.21335l0.34004,-22.08184z" data-paper-data="{&quot;index&quot;:null}" fill="#0070ff" stroke-width="0"/></g><g><g><path d="M431.24458,329.91999v-66h66v66z" fill="#0a5fce" stroke-width="NaN"/><path d="M497.18165,327.75518l-42.70814,-63.69826l24.83401,-13.7221l18.17212,28.46335l-0.34004,22.08184z" fill="#0070ff" stroke-width="0"/></g><path d="M431.5215,277.83481l36.70814,52.19826l-33.58402,-0.02789l-3.42212,-3.21335l0.34004,-22.08184z" data-paper-data="{&quot;index&quot;:null}" fill="#0070ff" stroke-width="0"/></g><g><path d="M18.90736,334.27479v-66h66v66z" fill="#0a5fce" stroke-width="NaN"/><path d="M41.84443,334.35997l-22.95814,-36.94826l24.83401,-13.7221l31.70814,50.44826z" fill="#0070ff" stroke-width="0"/><path d="M18.73567,278.27479v-10.5h66.5v10.5z" fill="#49b6ff" stroke-width="0"/><path d="M18.73567,288.27479v-10.5h66.5v10.5z" fill="#0063ce" stroke-width="0"/><path d="M18.73567,298.77479v-10.5h66.5v10.5z" fill="#0007b1" stroke-width="0"/></g><g><path d="M105.30687,269.43233v-66h66v66z" fill="#0a5fce" stroke-width="NaN"/><path d="M128.24394,269.51751l-22.95814,-36.94826l24.83402,-13.7221l31.70814,50.44826z" fill="#0070ff" stroke-width="0"/><g stroke-width="0"><path d="M104.80687,213.43233v-10.5h66.5v10.5z" fill="#49b6ff"/><path d="M104.80687,223.43233v-10.5h66.5v10.5z" fill="#0063ce"/><path d="M104.80687,233.93233v-10.5h66.5v10.5z" fill="#0007b1"/></g></g><g><g><path d="M105.30687,334.59899v-66h66v66z" fill="#0a5fce" stroke-width="NaN"/><path d="M171.24394,332.43418l-42.70814,-63.69826l24.83402,-13.7221l18.17212,28.46335l-0.34004,22.08184z" fill="#0070ff" stroke-width="0"/></g><path d="M105.58379,282.51381l36.70814,52.19826l-33.58402,-0.02789l-3.42212,-3.21335l0.34004,-22.08184z" data-paper-data="{&quot;index&quot;:null}" fill="#0070ff" stroke-width="0"/></g></g></g></svg>