<svg version="1.1" xmlns="http://www.w3.org/2000/svg" xmlns:xlink="http://www.w3.org/1999/xlink" width="106.95883" height="106.53789" viewBox="0,0,106.95883,106.53789"><g transform="translate(-194.92628,-126.73107)"><g data-paper-data="{&quot;isPaintingLayer&quot;:true}" fill-rule="nonzero" stroke-linecap="butt" stroke-linejoin="miter" stroke-miterlimit="10" stroke-dasharray="" stroke-dashoffset="0" style="mix-blend-mode: normal"><path d="M194.92628,233.26896v-106.53789h90.14744v106.53789z" fill="none" stroke="none" stroke-width="NaN"/><g><path d="M230.39453,182.738l17.4752,4.33339l-2.04765,8.25751l-17.4752,-4.33339z" fill="#8a5f00" stroke="#000000" stroke-width="1.5"/><path d="M250.02664,185.77165c0,0 14.50518,6.45071 22.18552,8.35523c6.24417,1.54839 21.68783,3.15236 27.45291,4.42527c1.44417,0.31885 1.79945,1.05233 1.06194,1.8411c-1.55077,1.65864 -4.11431,4.40051 -5.09268,5.4469c-0.74905,0.80117 -2.21438,1.75856 -3.09215,1.63787c-4.01268,-0.55165 -15.85383,-1.84515 -22.18253,-3.41451c-7.77716,-1.92853 -22.90447,-7.92199 -22.90447,-7.92199z" fill="#c9c9c9" stroke="#000000" stroke-width="1.5"/><path d="M241.12419,186.49305l2.88051,0.7143l-1.55089,6.25427l-2.88051,-0.7143z" fill="#d18f00" stroke="none" stroke-width="0"/><path d="M235.85238,185.13847l2.88053,0.7143l-1.55089,6.25427l-2.88053,-0.7143z" fill="#d18f00" stroke="none" stroke-width="0"/><path d="M230.89781,183.95236l2.37316,0.58848l-1.55089,6.25427l-2.37316,-0.58848z" fill="#d18f00" stroke="none" stroke-width="0"/><path d="M249.81077,185.90171c0,0 14.8062,5.23678 22.48656,7.14129c6.24417,1.54839 21.45307,4.09908 27.20162,5.43863c1.44003,0.33555 1.86337,0.7945 1.22837,1.16997c-1.33527,0.78951 -2.42562,3.11946 -3.26801,3.61756c-0.64497,0.38136 -3.08787,-0.24787 -3.95542,-0.40981c-3.9659,-0.74026 -15.63376,-2.73257 -21.96247,-4.30189c-7.77716,-1.92853 -23.14101,-6.96818 -23.14101,-6.96818z" fill="#989898" stroke="none" stroke-width="0"/><path d="M250.06128,185.82271c0,0 14.50518,6.45071 22.18552,8.35523c6.24417,1.54839 21.68784,3.15234 27.45291,4.42527c1.44417,0.31885 1.79944,1.05232 1.06196,1.84111c-1.55077,1.65864 -4.11433,4.4005 -5.09268,5.4469c-0.74906,0.80116 -2.21438,1.75856 -3.09215,1.63787c-4.01268,-0.55165 -15.85383,-1.84515 -22.18253,-3.41451c-7.77716,-1.92853 -22.9045,-7.92196 -22.9045,-7.92196z" fill="none" stroke="#000000" stroke-width="1.5"/><path d="M248.38629,180.26879l5.56902,1.38096l-5.19053,20.93184l-5.56902,-1.38096z" fill="#382700" stroke="#000000" stroke-width="1.5"/></g></g></g></svg>