<svg version="1.1" xmlns="http://www.w3.org/2000/svg" xmlns:xlink="http://www.w3.org/1999/xlink" width="506.23506" height="198.35039" viewBox="0,0,506.23506,198.35039"><g transform="translate(26.0625,-232.85726)"><g data-paper-data="{&quot;isPaintingLayer&quot;:true}" fill-rule="nonzero" stroke="none" stroke-linecap="butt" stroke-linejoin="miter" stroke-miterlimit="10" stroke-dasharray="" stroke-dashoffset="0" style="mix-blend-mode: normal"><g><g><path d="M-25.72916,430.09458v-66h66v66z" fill="#0070ff" stroke-width="NaN"/><path d="M40.2079,427.92972l-42.70814,-63.69826l24.83402,-13.7221l18.17211,28.46335l-0.34004,22.08184z" fill="#0a5fce" stroke-width="0"/></g><path d="M-25.45225,378.0094l36.70814,52.19826l-33.58401,-0.02789l-3.42212,-3.21335l0.34004,-22.08184z" data-paper-data="{&quot;index&quot;:null}" fill="#0a5fce" stroke-width="0"/></g><g><path d="M-25.5625,364.92783v-66h66v66z" fill="#0070ff" stroke-width="NaN"/><path d="M-2.62543,365.0131l-22.95814,-36.94826l24.83402,-13.7221l31.70814,50.44826z" fill="#0a5fce" stroke-width="0"/><g stroke-width="0"><path d="M-26.0625,308.92783v-10.5h66.5v10.5z" fill="#49b6ff"/><path d="M-26.0625,318.92783v-10.5h66.5v10.5z" fill="#0063ce"/><path d="M-26.0625,329.42783v-10.5h66.5v10.5z" fill="#0007b1"/></g></g><g><path d="M39.9375,364.92783v-66h66v66z" fill="#0070ff" stroke-width="NaN"/><path d="M62.87457,365.0131l-22.95814,-36.94826l24.83401,-13.7221l31.70814,50.44826z" fill="#0a5fce" stroke-width="0"/><g stroke-width="0"><path d="M39.4375,308.92783v-10.5h66.5v10.5z" fill="#49b6ff"/><path d="M39.4375,318.92783v-10.5h66.5v10.5z" fill="#0063ce"/><path d="M39.4375,329.42783v-10.5h66.5v10.5z" fill="#0007b1"/></g></g><g><g><path d="M39.9375,430.09458v-66h66v66z" fill="#0070ff" stroke-width="NaN"/><path d="M105.87457,427.92972l-42.70814,-63.69826l24.83402,-13.7221l18.17211,28.46335l-0.34004,22.08184z" fill="#0a5fce" stroke-width="0"/></g><path d="M40.21442,378.0094l36.70814,52.19826l-33.58401,-0.02789l-3.42212,-3.21335l0.34004,-22.08184z" data-paper-data="{&quot;index&quot;:null}" fill="#0a5fce" stroke-width="0"/></g><g><g><path d="M105.27084,430.09458v-66h66v66z" fill="#0070ff" stroke-width="NaN"/><path d="M171.2079,427.92972l-42.70814,-63.69826l24.83401,-13.7221l18.17211,28.46335l-0.34004,22.08184z" fill="#0a5fce" stroke-width="0"/></g><path d="M105.54775,378.0094l36.70814,52.19826l-33.58401,-0.02789l-3.42211,-3.21335l0.34004,-22.08184z" data-paper-data="{&quot;index&quot;:null}" fill="#0a5fce" stroke-width="0"/></g><g><path d="M105.4375,364.92783v-66h66v66z" fill="#0070ff" stroke-width="NaN"/><path d="M128.37457,365.0131l-22.95814,-36.94826l24.83401,-13.7221l31.70814,50.44826z" fill="#0a5fce" stroke-width="0"/><g stroke-width="0"><path d="M104.9375,308.92783v-10.5h66.5v10.5z" fill="#49b6ff"/><path d="M104.9375,318.92783v-10.5h66.5v10.5z" fill="#0063ce"/><path d="M104.9375,329.42783v-10.5h66.5v10.5z" fill="#0007b1"/></g></g><g><path d="M170.9375,364.92783v-66h66v66z" fill="#0070ff" stroke-width="NaN"/><path d="M193.87457,365.0131l-22.95814,-36.94826l24.83401,-13.7221l31.70814,50.44826z" fill="#0a5fce" stroke-width="0"/><g stroke-width="0"><path d="M170.4375,308.92783v-10.5h66.5v10.5z" fill="#49b6ff"/><path d="M170.4375,318.92783v-10.5h66.5v10.5z" fill="#0063ce"/><path d="M170.4375,329.42783v-10.5h66.5v10.5z" fill="#0007b1"/></g></g><g><g><path d="M170.9375,430.09458v-66h66v66z" fill="#0070ff" stroke-width="NaN"/><path d="M236.87457,427.92972l-42.70814,-63.69826l24.83402,-13.7221l18.17211,28.46335l-0.34004,22.08184z" fill="#0a5fce" stroke-width="0"/></g><path d="M171.21442,378.0094l36.70814,52.19826l-33.58402,-0.02789l-3.42211,-3.21335l0.34004,-22.08184z" data-paper-data="{&quot;index&quot;:null}" fill="#0a5fce" stroke-width="0"/></g><g><g><path d="M236.27084,430.09458v-66h66v66z" fill="#0070ff" stroke-width="NaN"/><path d="M302.2079,427.92972l-42.70814,-63.69826l24.83401,-13.7221l18.17212,28.46335l-0.34004,22.08184z" fill="#0a5fce" stroke-width="0"/></g><path d="M236.54775,378.0094l36.70814,52.19826l-33.58401,-0.02789l-3.42212,-3.21335l0.34004,-22.08184z" data-paper-data="{&quot;index&quot;:null}" fill="#0a5fce" stroke-width="0"/></g><g><path d="M236.4375,364.92783v-66h66v66z" fill="#0070ff" stroke-width="NaN"/><path d="M259.37457,365.0131l-22.95814,-36.94826l24.83401,-13.7221l31.70814,50.44826z" fill="#0a5fce" stroke-width="0"/><g stroke-width="0"><path d="M235.9375,308.92783v-10.5h66.5v10.5z" fill="#49b6ff"/><path d="M235.9375,318.92783v-10.5h66.5v10.5z" fill="#0063ce"/><path d="M235.9375,329.42783v-10.5h66.5v10.5z" fill="#0007b1"/></g></g><g><path d="M413.9375,365.92783v-66h66v66z" fill="#0070ff" stroke-width="NaN"/><path d="M436.87457,366.0131l-22.95814,-36.94826l24.83402,-13.7221l31.70814,50.44826z" fill="#0a5fce" stroke-width="0"/><g stroke-width="0"><path d="M413.4375,309.92783v-10.5h66.5v10.5z" fill="#49b6ff"/><path d="M413.4375,319.92783v-10.5h66.5v10.5z" fill="#0063ce"/><path d="M413.4375,330.42783v-10.5h66.5v10.5z" fill="#0007b1"/></g></g><g><g><path d="M413.9375,431.09458v-66h66v66z" fill="#0070ff" stroke-width="NaN"/><path d="M479.87457,428.92972l-42.70814,-63.69826l24.83401,-13.7221l18.17212,28.46335l-0.34004,22.08184z" fill="#0a5fce" stroke-width="0"/></g><path d="M414.21442,379.0094l36.70814,52.19826l-33.58402,-0.02789l-3.42212,-3.21335l0.34004,-22.08184z" data-paper-data="{&quot;index&quot;:null}" fill="#0a5fce" stroke-width="0"/></g><g><path d="M88.28435,299.35726v-66h66v66z" fill="#0070ff" stroke-width="NaN"/><path d="M111.22142,299.44252l-22.95814,-36.94826l24.83401,-13.7221l31.70814,50.44826z" fill="#0a5fce" stroke-width="0"/><g stroke-width="0"><path d="M87.78435,243.35726v-10.5h66.5v10.5z" fill="#49b6ff"/><path d="M87.78435,253.35726v-10.5h66.5v10.5z" fill="#0063ce"/><path d="M87.78435,263.85726v-10.5h66.5v10.5z" fill="#0007b1"/></g></g><g><path d="M235.92699,301.35426v-66h66v66z" fill="#0070ff" stroke-width="NaN"/><path d="M258.86406,301.43952l-22.95814,-36.94826l24.83401,-13.7221l31.70814,50.44826z" fill="#0a5fce" stroke-width="0"/><g stroke-width="0"><path d="M235.42699,245.35426v-10.5h66.5v10.5z" fill="#49b6ff"/><path d="M235.42699,255.35426v-10.5h66.5v10.5z" fill="#0063ce"/><path d="M235.42699,265.85426v-10.5h66.5v10.5z" fill="#0007b1"/></g></g></g></g></svg>