<svg version="1.1" xmlns="http://www.w3.org/2000/svg" xmlns:xlink="http://www.w3.org/1999/xlink" width="594.95796" height="234.88786" viewBox="0,0,594.95796,234.88786"><g transform="translate(26.0625,-195.31973)"><g data-paper-data="{&quot;isPaintingLayer&quot;:true}" fill-rule="nonzero" stroke="none" stroke-linecap="butt" stroke-linejoin="miter" stroke-miterlimit="10" stroke-dasharray="" stroke-dashoffset="0" style="mix-blend-mode: normal"><g><g><path d="M-25.72916,430.09451v-66h66v66z" fill="#0a5fce" stroke-width="NaN"/><path d="M40.2079,427.9297l-42.70814,-63.69826l24.83402,-13.7221l18.17211,28.46335l-0.34004,22.08184z" fill="#0070ff" stroke-width="0"/></g><path d="M-25.45225,378.00933l36.70814,52.19826l-33.58401,-0.02789l-3.42212,-3.21335l0.34004,-22.08184z" data-paper-data="{&quot;index&quot;:null}" fill="#0070ff" stroke-width="0"/></g><g><path d="M-25.5625,364.92784v-66h66v66z" fill="#0a5fce" stroke-width="NaN"/><path d="M-2.62543,365.01303l-22.95814,-36.94826l24.83402,-13.7221l31.70814,50.44826z" fill="#0070ff" stroke-width="0"/><g stroke-width="0"><path d="M-26.0625,308.92784v-10.5h66.5v10.5z" fill="#49b6ff"/><path d="M-26.0625,318.92784v-10.5h66.5v10.5z" fill="#0063ce"/><path d="M-26.0625,329.42784v-10.5h66.5v10.5z" fill="#0007b1"/></g></g><g><path d="M39.9375,364.92784v-66h66v66z" fill="#0a5fce" stroke-width="NaN"/><path d="M62.87457,365.01303l-22.95814,-36.94826l24.83401,-13.7221l31.70814,50.44826z" fill="#0070ff" stroke-width="0"/><g stroke-width="0"><path d="M39.4375,308.92784v-10.5h66.5v10.5z" fill="#49b6ff"/><path d="M39.4375,318.92784v-10.5h66.5v10.5z" fill="#0063ce"/><path d="M39.4375,329.42784v-10.5h66.5v10.5z" fill="#0007b1"/></g></g><g><g><path d="M39.9375,430.09451v-66h66v66z" fill="#0a5fce" stroke-width="NaN"/><path d="M105.87457,427.9297l-42.70814,-63.69826l24.83402,-13.7221l18.17211,28.46335l-0.34004,22.08184z" fill="#0070ff" stroke-width="0"/></g><path d="M40.21442,378.00933l36.70814,52.19826l-33.58401,-0.02789l-3.42212,-3.21335l0.34004,-22.08184z" data-paper-data="{&quot;index&quot;:null}" fill="#0070ff" stroke-width="0"/></g><g><g><path d="M105.27084,430.09451v-66h66v66z" fill="#0a5fce" stroke-width="NaN"/><path d="M171.2079,427.9297l-42.70814,-63.69826l24.83401,-13.7221l18.17211,28.46335l-0.34004,22.08184z" fill="#0070ff" stroke-width="0"/></g><path d="M105.54775,378.00933l36.70814,52.19826l-33.58401,-0.02789l-3.42211,-3.21335l0.34004,-22.08184z" data-paper-data="{&quot;index&quot;:null}" fill="#0070ff" stroke-width="0"/></g><g><path d="M105.4375,364.92784v-66h66v66z" fill="#0a5fce" stroke-width="NaN"/><path d="M128.37457,365.01303l-22.95814,-36.94826l24.83401,-13.7221l31.70814,50.44826z" fill="#0070ff" stroke-width="0"/><g stroke-width="0"><path d="M104.9375,308.92784v-10.5h66.5v10.5z" fill="#49b6ff"/><path d="M104.9375,318.92784v-10.5h66.5v10.5z" fill="#0063ce"/><path d="M104.9375,329.42784v-10.5h66.5v10.5z" fill="#0007b1"/></g></g><g><path d="M170.9375,364.92784v-66h66v66z" fill="#0a5fce" stroke-width="NaN"/><path d="M193.87457,365.01303l-22.95814,-36.94826l24.83401,-13.7221l31.70814,50.44826z" fill="#0070ff" stroke-width="0"/><g stroke-width="0"><path d="M170.4375,308.92784v-10.5h66.5v10.5z" fill="#49b6ff"/><path d="M170.4375,318.92784v-10.5h66.5v10.5z" fill="#0063ce"/><path d="M170.4375,329.42784v-10.5h66.5v10.5z" fill="#0007b1"/></g></g><g><g><path d="M170.9375,430.09451v-66h66v66z" fill="#0a5fce" stroke-width="NaN"/><path d="M236.87457,427.9297l-42.70814,-63.69826l24.83402,-13.7221l18.17211,28.46335l-0.34004,22.08184z" fill="#0070ff" stroke-width="0"/></g><path d="M171.21442,378.00933l36.70814,52.19826l-33.58402,-0.02789l-3.42211,-3.21335l0.34004,-22.08184z" data-paper-data="{&quot;index&quot;:null}" fill="#0070ff" stroke-width="0"/></g><g><g><path d="M367.27084,430.09451v-66h66v66z" fill="#0a5fce" stroke-width="NaN"/><path d="M433.2079,427.9297l-42.70814,-63.69826l24.83401,-13.7221l18.17212,28.46335l-0.34004,22.08184z" fill="#0070ff" stroke-width="0"/></g><path d="M367.54775,378.00933l36.70814,52.19826l-33.58402,-0.02789l-3.42211,-3.21335l0.34004,-22.08184z" data-paper-data="{&quot;index&quot;:null}" fill="#0070ff" stroke-width="0"/></g><g><path d="M367.4375,364.92784v-66h66v66z" fill="#0a5fce" stroke-width="NaN"/><path d="M390.37457,365.01303l-22.95814,-36.94826l24.83402,-13.7221l31.70814,50.44826z" fill="#0070ff" stroke-width="0"/><g stroke-width="0"><path d="M366.9375,308.92784v-10.5h66.5v10.5z" fill="#49b6ff"/><path d="M366.9375,318.92784v-10.5h66.5v10.5z" fill="#0063ce"/><path d="M366.9375,329.42784v-10.5h66.5v10.5z" fill="#0007b1"/></g></g><g><path d="M432.9375,364.92784v-66h66v66z" fill="#0a5fce" stroke-width="NaN"/><path d="M455.87457,365.01303l-22.95814,-36.94826l24.83402,-13.7221l31.70814,50.44826z" fill="#0070ff" stroke-width="0"/><g stroke-width="0"><path d="M432.4375,308.92784v-10.5h66.5v10.5z" fill="#49b6ff"/><path d="M432.4375,318.92784v-10.5h66.5v10.5z" fill="#0063ce"/><path d="M432.4375,329.42784v-10.5h66.5v10.5z" fill="#0007b1"/></g></g><g><g><path d="M432.9375,430.09451v-66h66v66z" fill="#0a5fce" stroke-width="NaN"/><path d="M498.87457,427.9297l-42.70814,-63.69826l24.83401,-13.7221l18.17212,28.46335l-0.34004,22.08184z" fill="#0070ff" stroke-width="0"/></g><path d="M433.21442,378.00933l36.70814,52.19826l-33.58402,-0.02789l-3.42212,-3.21335l0.34004,-22.08184z" data-paper-data="{&quot;index&quot;:null}" fill="#0070ff" stroke-width="0"/></g><g><g><path d="M236.28079,430.09451v-66h66v66z" fill="#0a5fce" stroke-width="NaN"/><path d="M302.21785,427.9297l-42.70814,-63.69826l24.83401,-13.7221l18.17212,28.46335l-0.34004,22.08184z" fill="#0070ff" stroke-width="0"/></g><path d="M236.5577,378.00933l36.70814,52.19826l-33.58402,-0.02789l-3.42211,-3.21335l0.34004,-22.08184z" data-paper-data="{&quot;index&quot;:null}" fill="#0070ff" stroke-width="0"/></g><g><path d="M236.44745,364.92784v-66h66v66z" fill="#0a5fce" stroke-width="NaN"/><path d="M259.38452,365.01303l-22.95814,-36.94826l24.83402,-13.7221l31.70814,50.44826z" fill="#0070ff" stroke-width="0"/><g stroke-width="0"><path d="M235.94745,308.92784v-10.5h66.5v10.5z" fill="#38c700"/><path d="M235.94745,318.92784v-10.5h66.5v10.5z" fill="#1fa700"/><path d="M235.94745,329.42784v-10.5h66.5v10.5z" fill="#157300"/></g></g><g><path d="M301.94745,364.92784v-66h66v66z" fill="#0a5fce" stroke-width="NaN"/><path d="M324.88452,365.01303l-22.95814,-36.94826l24.83402,-13.7221l31.70814,50.44826z" fill="#0070ff" stroke-width="0"/><g stroke-width="0"><path d="M301.44745,308.92784v-10.5h66.5v10.5z" fill="#49b6ff"/><path d="M301.44745,318.92784v-10.5h66.5v10.5z" fill="#0063ce"/><path d="M301.44745,329.42784v-10.5h66.5v10.5z" fill="#0007b1"/></g></g><g><g><path d="M301.94745,430.09451v-66h66v66z" fill="#0a5fce" stroke-width="NaN"/><path d="M367.88452,427.9297l-42.70814,-63.69826l24.83401,-13.7221l18.17212,28.46335l-0.34004,22.08184z" fill="#0070ff" stroke-width="0"/></g><path d="M302.22437,378.00933l36.70814,52.19826l-33.58402,-0.02789l-3.42212,-3.21335l0.34004,-22.08184z" data-paper-data="{&quot;index&quot;:null}" fill="#0070ff" stroke-width="0"/></g><g><g><path d="M235.5241,330.87615v-66h66v66z" fill="#0a5fce" stroke-width="NaN"/><path d="M301.46116,328.71134l-42.70814,-63.69826l24.83401,-13.7221l18.17211,28.46335l-0.34004,22.08184z" fill="#0070ff" stroke-width="0"/></g><path d="M235.80101,278.79097l36.70814,52.19826l-33.58401,-0.02789l-3.42211,-3.21335l0.34004,-22.08184z" data-paper-data="{&quot;index&quot;:null}" fill="#0070ff" stroke-width="0"/></g><g><path d="M235.69076,265.70948v-66h66v66z" fill="#0a5fce" stroke-width="NaN"/><path d="M258.62783,265.79467l-22.95814,-36.94826l24.83401,-13.7221l31.70814,50.44826z" fill="#0070ff" stroke-width="0"/><g stroke-width="0"><path d="M235.19076,209.70948v-10.5h66.5v10.5z" fill="#49b6ff"/><path d="M235.19076,219.70948v-10.5h66.5v10.5z" fill="#0063ce"/><path d="M235.19076,230.20948v-10.5h66.5v10.5z" fill="#0007b1"/></g></g><g><path d="M151.07807,330.72644v-66h66v66z" fill="#0a5fce" stroke-width="NaN"/><path d="M174.01514,330.81163l-22.95814,-36.94826l24.83401,-13.7221l31.70814,50.44826z" fill="#0070ff" stroke-width="0"/><g stroke-width="0"><path d="M150.57807,274.72644v-10.5h66.5v10.5z" fill="#49b6ff"/><path d="M150.57807,284.72644v-10.5h66.5v10.5z" fill="#0063ce"/><path d="M150.57807,295.22644v-10.5h66.5v10.5z" fill="#0007b1"/></g></g><g><path d="M346.3483,329.98964v-66h66v66z" fill="#0063ce" stroke-width="NaN"/><path d="M369.28537,330.07483l-22.95814,-36.94826l24.83401,-13.7221l31.70814,50.44826z" fill="#0070ff" stroke-width="0"/><g stroke-width="0"><path d="M345.8483,273.98964v-10.5h66.5v10.5z" fill="#49b6ff"/><path d="M345.8483,283.98964v-10.5h66.5v10.5z" fill="#0063ce"/><path d="M345.8483,294.48964v-10.5h66.5v10.5z" fill="#0007b1"/></g></g><g><path d="M437.39546,261.81973v-66h66v66z" fill="#0a5fce" stroke-width="NaN"/><path d="M460.33253,261.90492l-22.95814,-36.94826l24.83402,-13.7221l31.70814,50.44826z" fill="#0070ff" stroke-width="0"/><g stroke-width="0"><path d="M436.89546,205.81973v-10.5h66.5v10.5z" fill="#49b6ff"/><path d="M436.89546,215.81973v-10.5h66.5v10.5z" fill="#0063ce"/><path d="M436.89546,226.31973v-10.5h66.5v10.5z" fill="#0007b1"/></g></g><g><path d="M502.89546,261.81973v-66h66v66z" fill="#0a5fce" stroke-width="NaN"/><path d="M525.83253,261.90492l-22.95814,-36.94826l24.83401,-13.7221l31.70814,50.44826z" fill="#0070ff" stroke-width="0"/><g stroke-width="0"><path d="M502.39546,205.81973v-10.5h66.5v10.5z" fill="#49b6ff"/><path d="M502.39546,215.81973v-10.5h66.5v10.5z" fill="#0063ce"/><path d="M502.39546,226.31973v-10.5h66.5v10.5z" fill="#0007b1"/></g></g></g></g></svg>