<svg version="1.1" xmlns="http://www.w3.org/2000/svg" xmlns:xlink="http://www.w3.org/1999/xlink" width="589.23506" height="378.08452" viewBox="0,0,589.23506,378.08452"><g transform="translate(47.0625,-48.12314)"><g data-paper-data="{&quot;isPaintingLayer&quot;:true}" fill-rule="nonzero" stroke="none" stroke-linecap="butt" stroke-linejoin="miter" stroke-miterlimit="10" stroke-dasharray="" stroke-dashoffset="0" style="mix-blend-mode: normal"><g><g><path d="M-46.72916,426.09458v-66h66v66z" fill="#0a5fce" stroke-width="NaN"/><path d="M19.2079,423.92972l-42.70814,-63.69826l24.83402,-13.7221l18.17211,28.46335l-0.34004,22.08184z" fill="#0070ff" stroke-width="0"/></g><path d="M-46.45225,374.0094l36.70814,52.19826l-33.58401,-0.02789l-3.42212,-3.21335l0.34004,-22.08184z" data-paper-data="{&quot;index&quot;:null}" fill="#0070ff" stroke-width="0"/></g><g><path d="M-46.5625,360.92783v-66h66v66z" fill="#0a5fce" stroke-width="NaN"/><path d="M-23.62543,361.0131l-22.95814,-36.94826l24.83402,-13.7221l31.70814,50.44826z" fill="#0070ff" stroke-width="0"/><g stroke-width="0"><path d="M-47.0625,304.92783v-10.5h66.5v10.5z" fill="#49b6ff"/><path d="M-47.0625,314.92783v-10.5h66.5v10.5z" fill="#0063ce"/><path d="M-47.0625,325.42783v-10.5h66.5v10.5z" fill="#0007b1"/></g></g><g><path d="M18.9375,360.92783v-66h66v66z" fill="#0a5fce" stroke-width="NaN"/><path d="M41.87457,361.0131l-22.95814,-36.94826l24.83401,-13.7221l31.70814,50.44826z" fill="#0070ff" stroke-width="0"/><g stroke-width="0"><path d="M18.4375,304.92783v-10.5h66.5v10.5z" fill="#49b6ff"/><path d="M18.4375,314.92783v-10.5h66.5v10.5z" fill="#0063ce"/><path d="M18.4375,325.42783v-10.5h66.5v10.5z" fill="#0007b1"/></g></g><g><g><path d="M18.9375,426.09458v-66h66v66z" fill="#0a5fce" stroke-width="NaN"/><path d="M84.87457,423.92972l-42.70814,-63.69826l24.83402,-13.7221l18.17211,28.46335l-0.34004,22.08184z" fill="#0070ff" stroke-width="0"/></g><path d="M19.21442,374.0094l36.70814,52.19826l-33.58401,-0.02789l-3.42212,-3.21335l0.34004,-22.08184z" data-paper-data="{&quot;index&quot;:null}" fill="#0070ff" stroke-width="0"/></g><g><g><path d="M84.27084,426.09458v-66h66v66z" fill="#0a5fce" stroke-width="NaN"/><path d="M150.2079,423.92972l-42.70814,-63.69826l24.83401,-13.7221l18.17211,28.46335l-0.34004,22.08184z" fill="#0070ff" stroke-width="0"/></g><path d="M84.54775,374.0094l36.70814,52.19826l-33.58401,-0.02789l-3.42211,-3.21335l0.34004,-22.08184z" data-paper-data="{&quot;index&quot;:null}" fill="#0070ff" stroke-width="0"/></g><g><path d="M84.4375,360.92783v-66h66v66z" fill="#0a5fce" stroke-width="NaN"/><path d="M107.37457,361.0131l-22.95814,-36.94826l24.83401,-13.7221l31.70814,50.44826z" fill="#0070ff" stroke-width="0"/><g stroke-width="0"><path d="M83.9375,304.92783v-10.5h66.5v10.5z" fill="#49b6ff"/><path d="M83.9375,314.92783v-10.5h66.5v10.5z" fill="#0063ce"/><path d="M83.9375,325.42783v-10.5h66.5v10.5z" fill="#0007b1"/></g></g><g><path d="M149.9375,360.92783v-66h66v66z" fill="#0a5fce" stroke-width="NaN"/><path d="M172.87457,361.0131l-22.95814,-36.94826l24.83401,-13.7221l31.70814,50.44826z" fill="#0070ff" stroke-width="0"/><g stroke-width="0"><path d="M149.4375,304.92783v-10.5h66.5v10.5z" fill="#49b6ff"/><path d="M149.4375,314.92783v-10.5h66.5v10.5z" fill="#0063ce"/><path d="M149.4375,325.42783v-10.5h66.5v10.5z" fill="#0007b1"/></g></g><g><g><path d="M149.9375,426.09458v-66h66v66z" fill="#0a5fce" stroke-width="NaN"/><path d="M215.87457,423.92972l-42.70814,-63.69826l24.83402,-13.7221l18.17211,28.46335l-0.34004,22.08184z" fill="#0070ff" stroke-width="0"/></g><path d="M150.21442,374.0094l36.70814,52.19826l-33.58402,-0.02789l-3.42211,-3.21335l0.34004,-22.08184z" data-paper-data="{&quot;index&quot;:null}" fill="#0070ff" stroke-width="0"/></g><g><g><path d="M215.27084,426.09458v-66h66v66z" fill="#0a5fce" stroke-width="NaN"/><path d="M281.2079,423.92972l-42.70814,-63.69826l24.83401,-13.7221l18.17212,28.46335l-0.34004,22.08184z" fill="#0070ff" stroke-width="0"/></g><path d="M215.54775,374.0094l36.70814,52.19826l-33.58401,-0.02789l-3.42212,-3.21335l0.34004,-22.08184z" data-paper-data="{&quot;index&quot;:null}" fill="#0070ff" stroke-width="0"/></g><g><path d="M215.4375,360.92783v-66h66v66z" fill="#0a5fce" stroke-width="NaN"/><path d="M238.37457,361.0131l-22.95814,-36.94826l24.83401,-13.7221l31.70814,50.44826z" fill="#0070ff" stroke-width="0"/><g stroke-width="0"><path d="M214.9375,304.92783v-10.5h66.5v10.5z" fill="#49b6ff"/><path d="M214.9375,314.92783v-10.5h66.5v10.5z" fill="#0063ce"/><path d="M214.9375,325.42783v-10.5h66.5v10.5z" fill="#0007b1"/></g></g><g><path d="M279.9375,360.9279v-66h66v66z" fill="#0a5fce" stroke-width="NaN"/><path d="M302.87457,361.0131l-22.95814,-36.94826l24.83401,-13.7221l31.70814,50.44826z" fill="#0070ff" stroke-width="0"/><g stroke-width="0"><path d="M279.4375,304.92785v-10.5h66.5v10.5z" fill="#49b6ff"/><path d="M279.4375,314.92785v-10.5h66.5v10.5z" fill="#0063ce"/><path d="M279.4375,325.42785v-10.5h66.5v10.5z" fill="#0007b1"/></g></g><g><g><path d="M279.9375,426.09458v-66h66v66z" fill="#0a5fce" stroke-width="NaN"/><path d="M345.87457,423.92972l-42.70814,-63.69826l24.83402,-13.7221l18.17211,28.46335l-0.34004,22.08184z" fill="#0070ff" stroke-width="0"/></g><path d="M280.21442,374.0094l36.70814,52.19826l-33.58402,-0.02789l-3.42211,-3.21335l0.34004,-22.08184z" data-paper-data="{&quot;index&quot;:null}" fill="#0070ff" stroke-width="0"/></g><g><g><path d="M345.27084,426.09458v-66h66v66z" fill="#0a5fce" stroke-width="NaN"/><path d="M411.2079,423.92972l-42.70814,-63.69826l24.83401,-13.7221l18.17212,28.46335l-0.34004,22.08184z" fill="#0070ff" stroke-width="0"/></g><path d="M345.54775,374.0094l36.70814,52.19826l-33.58401,-0.02789l-3.42212,-3.21335l0.34004,-22.08184z" data-paper-data="{&quot;index&quot;:null}" fill="#0070ff" stroke-width="0"/></g><g><path d="M345.4375,360.9279v-66h66v66z" fill="#0a5fce" stroke-width="NaN"/><path d="M368.37457,361.0131l-22.95814,-36.94826l24.83401,-13.7221l31.70814,50.44826z" fill="#0070ff" stroke-width="0"/><g stroke-width="0"><path d="M344.9375,304.92785v-10.5h66.5v10.5z" fill="#49b6ff"/><path d="M344.9375,314.92785v-10.5h66.5v10.5z" fill="#0063ce"/><path d="M344.9375,325.42785v-10.5h66.5v10.5z" fill="#0007b1"/></g></g><g><path d="M410.9375,360.92783v-66h66v66z" fill="#0a5fce" stroke-width="NaN"/><path d="M433.87457,361.0131l-22.95814,-36.94826l24.83402,-13.7221l31.70814,50.44826z" fill="#0070ff" stroke-width="0"/><g stroke-width="0"><path d="M410.4375,304.92783v-10.5h66.5v10.5z" fill="#49b6ff"/><path d="M410.4375,314.92783v-10.5h66.5v10.5z" fill="#0063ce"/><path d="M410.4375,325.42783v-10.5h66.5v10.5z" fill="#0007b1"/></g></g><g><g><path d="M410.9375,426.09458v-66h66v66z" fill="#0a5fce" stroke-width="NaN"/><path d="M476.87457,423.92972l-42.70814,-63.69826l24.83401,-13.7221l18.17212,28.46335l-0.34004,22.08184z" fill="#0070ff" stroke-width="0"/></g><path d="M411.21442,374.0094l36.70814,52.19826l-33.58402,-0.02789l-3.42212,-3.21335l0.34004,-22.08184z" data-paper-data="{&quot;index&quot;:null}" fill="#0070ff" stroke-width="0"/></g><g><path d="M475.9375,360.92792v-66h66v66z" fill="#0a5fce" stroke-width="NaN"/><path d="M498.87457,361.0131l-22.95814,-36.94826l24.83402,-13.7221l31.70814,50.44826z" fill="#0070ff" stroke-width="0"/><g stroke-width="0"><path d="M475.4375,304.92785v-10.5h66.5v10.5z" fill="#49b6ff"/><path d="M475.4375,314.92785v-10.5h66.5v10.5z" fill="#0063ce"/><path d="M475.4375,325.42785v-10.5h66.5v10.5z" fill="#0007b1"/></g></g><g><g><path d="M475.9375,426.09458v-66h66v66z" fill="#0a5fce" stroke-width="NaN"/><path d="M541.87457,423.92972l-42.70814,-63.69826l24.83401,-13.7221l18.17212,28.46335l-0.34004,22.08184z" fill="#0070ff" stroke-width="0"/></g><path d="M476.21442,374.0094l36.70814,52.19826l-33.58402,-0.02789l-3.42212,-3.21335l0.34004,-22.08184z" data-paper-data="{&quot;index&quot;:null}" fill="#0070ff" stroke-width="0"/></g><g><path d="M125.51397,325.26579v-66h66v66z" fill="#0a5fce" stroke-width="NaN"/><path d="M148.45104,325.35097l-22.95814,-36.94826l24.83401,-13.7221l31.70814,50.44826z" fill="#0070ff" stroke-width="0"/><path d="M125.34228,269.26579v-10.5h66.5v10.5z" fill="#49b6ff" stroke-width="0"/><path d="M125.34228,279.26579v-10.5h66.5v10.5z" fill="#0063ce" stroke-width="0"/><path d="M125.34228,289.76579v-10.5h66.5v10.5z" fill="#0007b1" stroke-width="0"/></g><g><path d="M63.4479,325.26579v-66h66v66z" fill="#0a5fce" stroke-width="NaN"/><path d="M86.38497,325.35097l-22.95814,-36.94826l24.83401,-13.7221l31.70814,50.44826z" fill="#0070ff" stroke-width="0"/><path d="M63.27621,269.26579v-10.5h66.5v10.5z" fill="#49b6ff" stroke-width="0"/><path d="M63.27621,279.26579v-10.5h66.5v10.5z" fill="#0063ce" stroke-width="0"/><path d="M63.27621,289.76579v-10.5h66.5v10.5z" fill="#0007b1" stroke-width="0"/></g><g><path d="M209.58604,114.62314v-66h66v66z" fill="#0a5fce" stroke-width="NaN"/><path d="M232.52311,114.70832l-22.95814,-36.94826l24.83401,-13.7221l31.70814,50.44826z" fill="#0070ff" stroke-width="0"/><path d="M209.41435,58.62314v-10.5h66.5v10.5z" fill="#49b6ff" stroke-width="0"/><path d="M209.41435,68.62314v-10.5h66.5v10.5z" fill="#0063ce" stroke-width="0"/><path d="M209.41435,79.12314v-10.5h66.5v10.5z" fill="#0007b1" stroke-width="0"/></g></g></g></svg>