<svg version="1.1" xmlns="http://www.w3.org/2000/svg" xmlns:xlink="http://www.w3.org/1999/xlink" width="90.14744" height="106.53789" viewBox="0,0,90.14744,106.53789"><g transform="translate(-194.92628,-126.73107)"><g data-paper-data="{&quot;isPaintingLayer&quot;:true}" fill-rule="nonzero" stroke-linecap="butt" stroke-linejoin="miter" stroke-miterlimit="10" stroke-dasharray="" stroke-dashoffset="0" style="mix-blend-mode: normal"><path d="M194.92628,233.26896v-106.53789h90.14744v106.53789z" fill="none" stroke="none" stroke-width="NaN"/><g><path d="M234.78144,201.73373l3.31109,-17.69739l8.3625,1.56458l-3.31109,17.69739z" fill="#8a5f00" stroke="#000000" stroke-width="1.5"/><path d="M236.6697,181.95857c0,0 5.59734,-14.85535 7.05256,-22.63336c1.1831,-6.32357 1.88737,-21.83431 2.82329,-27.66359c0.23444,-1.46025 0.94604,-1.85752 1.77631,-1.16708c1.74591,1.45182 4.63205,3.85178 5.7335,4.76771c0.84333,0.70126 1.8842,2.10849 1.81471,2.99181c-0.31766,4.03794 -0.92122,15.93423 -2.12035,22.3434c-1.47356,7.87604 -6.5783,23.32593 -6.5783,23.32593z" fill="#c9c9c9" stroke="#000000" stroke-width="1.5"/><path d="M237.90696,190.80409l0.54578,-2.91714l6.33379,1.18502l-0.54578,2.91714z" fill="#d18f00" stroke="none" stroke-width="0"/><path d="M236.86086,196.14568l0.54579,-2.91715l6.33379,1.18502l-0.54579,2.91715z" fill="#d18f00" stroke="none" stroke-width="0"/><path d="M235.96451,201.16076l0.44965,-2.40334l6.33379,1.18502l-0.44965,2.40334z" fill="#d18f00" stroke="none" stroke-width="0"/><path d="M236.81208,182.16652c0,0 4.36797,-15.08537 5.82319,-22.86337c1.1831,-6.32357 2.84614,-21.65493 3.84954,-27.47158c0.25135,-1.45708 0.68494,-1.90637 1.09664,-1.29426c0.86574,1.28716 3.25508,2.24034 3.80126,3.05238c0.41817,0.62174 -0.0681,3.09705 -0.17938,3.97254c-0.50867,4.0022 -1.81991,15.76608 -3.01902,22.17525c-1.47356,7.87604 -5.61235,23.50666 -5.61235,23.50666z" fill="#989898" stroke="none" stroke-width="0"/><path d="M236.71866,181.92101c0,0 5.59734,-14.85535 7.05256,-22.63336c1.1831,-6.32357 1.88736,-21.83432 2.82329,-27.66359c0.23444,-1.46025 0.94603,-1.85753 1.77633,-1.1671c1.74591,1.45182 4.63204,3.8518 5.7335,4.76771c0.84332,0.70126 1.8842,2.10849 1.8147,2.9918c-0.31766,4.03794 -0.92122,15.93423 -2.12035,22.3434c-1.47356,7.87604 -6.57826,23.32595 -6.57826,23.32595z" fill="none" stroke="#000000" stroke-width="1.5"/><path d="M231.2714,183.91576l1.05518,-5.63983l21.19797,3.96602l-1.05518,5.63983z" fill="#382700" stroke="#000000" stroke-width="1.5"/></g></g></g></svg>