<svg version="1.1" xmlns="http://www.w3.org/2000/svg" xmlns:xlink="http://www.w3.org/1999/xlink" width="527.56306" height="333.98695" viewBox="0,0,527.56306,333.98695"><g transform="translate(26.0625,-96.22062)"><g data-paper-data="{&quot;isPaintingLayer&quot;:true}" fill-rule="nonzero" stroke="none" stroke-linecap="butt" stroke-linejoin="miter" stroke-miterlimit="10" stroke-dasharray="" stroke-dashoffset="0" style="mix-blend-mode: normal"><g><g><path d="M-25.72916,430.09449v-66h66v66z" fill="#0a5fce" stroke-width="NaN"/><path d="M40.2079,427.92968l-42.70814,-63.69826l24.83402,-13.7221l18.17211,28.46335l-0.34004,22.08184z" fill="#0070ff" stroke-width="0"/></g><path d="M-25.45225,378.00931l36.70814,52.19826l-33.58401,-0.02789l-3.42212,-3.21335l0.34004,-22.08184z" data-paper-data="{&quot;index&quot;:null}" fill="#0070ff" stroke-width="0"/></g><g><path d="M-25.5625,364.92783v-66h66v66z" fill="#0a5fce" stroke-width="NaN"/><path d="M-2.62543,365.01301l-22.95814,-36.94826l24.83402,-13.7221l31.70814,50.44826z" fill="#0070ff" stroke-width="0"/><g stroke-width="0"><path d="M-26.0625,308.92783v-10.5h66.5v10.5z" fill="#49b6ff"/><path d="M-26.0625,318.92783v-10.5h66.5v10.5z" fill="#0063ce"/><path d="M-26.0625,329.42783v-10.5h66.5v10.5z" fill="#0007b1"/></g></g><g><path d="M39.9375,364.92783v-66h66v66z" fill="#0a5fce" stroke-width="NaN"/><path d="M62.87457,365.01301l-22.95814,-36.94826l24.83401,-13.7221l31.70814,50.44826z" fill="#0070ff" stroke-width="0"/><g stroke-width="0"><path d="M39.4375,308.92783v-10.5h66.5v10.5z" fill="#49b6ff"/><path d="M39.4375,318.92783v-10.5h66.5v10.5z" fill="#0063ce"/><path d="M39.4375,329.42783v-10.5h66.5v10.5z" fill="#0007b1"/></g></g><g><g><path d="M39.9375,430.09449v-66h66v66z" fill="#0a5fce" stroke-width="NaN"/><path d="M105.87457,427.92968l-42.70814,-63.69826l24.83402,-13.7221l18.17211,28.46335l-0.34004,22.08184z" fill="#0070ff" stroke-width="0"/></g><path d="M40.21442,378.00931l36.70814,52.19826l-33.58401,-0.02789l-3.42212,-3.21335l0.34004,-22.08184z" data-paper-data="{&quot;index&quot;:null}" fill="#0070ff" stroke-width="0"/></g><g><g><path d="M105.27084,430.09449v-66h66v66z" fill="#0a5fce" stroke-width="NaN"/><path d="M171.2079,427.92968l-42.70814,-63.69826l24.83401,-13.7221l18.17211,28.46335l-0.34004,22.08184z" fill="#0070ff" stroke-width="0"/></g><path d="M105.54775,378.00931l36.70814,52.19826l-33.58401,-0.02789l-3.42211,-3.21335l0.34004,-22.08184z" data-paper-data="{&quot;index&quot;:null}" fill="#0070ff" stroke-width="0"/></g><g><path d="M105.4375,364.92783v-66h66v66z" fill="#0a5fce" stroke-width="NaN"/><path d="M128.37457,365.01301l-22.95814,-36.94826l24.83401,-13.7221l31.70814,50.44826z" fill="#0070ff" stroke-width="0"/><g stroke-width="0"><path d="M104.9375,308.92783v-10.5h66.5v10.5z" fill="#38c700"/><path d="M104.9375,318.92783v-10.5h66.5v10.5z" fill="#1fa700"/><path d="M104.9375,329.42783v-10.5h66.5v10.5z" fill="#157300"/></g></g><g><path d="M170.9375,364.92783v-66h66v66z" fill="#0a5fce" stroke-width="NaN"/><path d="M193.87457,365.01301l-22.95814,-36.94826l24.83401,-13.7221l31.70814,50.44826z" fill="#0070ff" stroke-width="0"/><g stroke-width="0"><path d="M170.4375,308.92783v-10.5h66.5v10.5z" fill="#38c700"/><path d="M170.4375,318.92783v-10.5h66.5v10.5z" fill="#1fa700"/><path d="M170.4375,329.42783v-10.5h66.5v10.5z" fill="#157300"/></g></g><g><g><path d="M170.9375,430.09449v-66h66v66z" fill="#0a5fce" stroke-width="NaN"/><path d="M236.87457,427.92968l-42.70814,-63.69826l24.83402,-13.7221l18.17211,28.46335l-0.34004,22.08184z" fill="#0070ff" stroke-width="0"/></g><path d="M171.21442,378.00931l36.70814,52.19826l-33.58402,-0.02789l-3.42211,-3.21335l0.34004,-22.08184z" data-paper-data="{&quot;index&quot;:null}" fill="#0070ff" stroke-width="0"/></g><g><g><path d="M236.27084,430.09449v-66h66v66z" fill="#0a5fce" stroke-width="NaN"/><path d="M302.2079,427.92968l-42.70814,-63.69826l24.83401,-13.7221l18.17212,28.46335l-0.34004,22.08184z" fill="#0070ff" stroke-width="0"/></g><path d="M236.54775,378.00931l36.70814,52.19826l-33.58401,-0.02789l-3.42212,-3.21335l0.34004,-22.08184z" data-paper-data="{&quot;index&quot;:null}" fill="#0070ff" stroke-width="0"/></g><g><path d="M236.4375,364.92783v-66h66v66z" fill="#0a5fce" stroke-width="NaN"/><path d="M259.37457,365.01301l-22.95814,-36.94826l24.83401,-13.7221l31.70814,50.44826z" fill="#0070ff" stroke-width="0"/><g stroke-width="0"><path d="M235.9375,308.92783v-10.5h66.5v10.5z" fill="#49b6ff"/><path d="M235.9375,318.92783v-10.5h66.5v10.5z" fill="#0063ce"/><path d="M235.9375,329.42783v-10.5h66.5v10.5z" fill="#0007b1"/></g></g><g><path d="M301.9375,364.92783v-66h66v66z" fill="#0a5fce" stroke-width="NaN"/><path d="M324.87457,365.01301l-22.95814,-36.94826l24.83402,-13.7221l31.70814,50.44826z" fill="#0070ff" stroke-width="0"/><g stroke-width="0"><path d="M301.4375,308.92783v-10.5h66.5v10.5z" fill="#49b6ff"/><path d="M301.4375,318.92783v-10.5h66.5v10.5z" fill="#0063ce"/><path d="M301.4375,329.42783v-10.5h66.5v10.5z" fill="#0007b1"/></g></g><g><g><path d="M301.9375,430.09449v-66h66v66z" fill="#0a5fce" stroke-width="NaN"/><path d="M367.87457,427.92968l-42.70814,-63.69826l24.83402,-13.7221l18.17212,28.46335l-0.34004,22.08184z" fill="#0070ff" stroke-width="0"/></g><path d="M302.21442,378.00931l36.70814,52.19826l-33.58402,-0.02789l-3.42212,-3.21335l0.34004,-22.08184z" data-paper-data="{&quot;index&quot;:null}" fill="#0070ff" stroke-width="0"/></g><g><g><path d="M367.27084,430.09449v-66h66v66z" fill="#0a5fce" stroke-width="NaN"/><path d="M433.2079,427.92968l-42.70814,-63.69826l24.83401,-13.7221l18.17212,28.46335l-0.34004,22.08184z" fill="#0070ff" stroke-width="0"/></g><path d="M367.54775,378.00931l36.70814,52.19826l-33.58402,-0.02789l-3.42211,-3.21335l0.34004,-22.08184z" data-paper-data="{&quot;index&quot;:null}" fill="#0070ff" stroke-width="0"/></g><g><path d="M367.4375,364.92783v-66h66v66z" fill="#0a5fce" stroke-width="NaN"/><path d="M390.37457,365.01301l-22.95814,-36.94826l24.83402,-13.7221l31.70814,50.44826z" fill="#0070ff" stroke-width="0"/><g stroke-width="0"><path d="M366.9375,308.92783v-10.5h66.5v10.5z" fill="#49b6ff"/><path d="M366.9375,318.92783v-10.5h66.5v10.5z" fill="#0063ce"/><path d="M366.9375,329.42783v-10.5h66.5v10.5z" fill="#0007b1"/></g></g><g><path d="M432.9375,364.92783v-66h66v66z" fill="#0a5fce" stroke-width="NaN"/><path d="M455.87457,365.01301l-22.95814,-36.94826l24.83402,-13.7221l31.70814,50.44826z" fill="#0070ff" stroke-width="0"/><g stroke-width="0"><path d="M432.4375,308.92783v-10.5h66.5v10.5z" fill="#49b6ff"/><path d="M432.4375,318.92783v-10.5h66.5v10.5z" fill="#0063ce"/><path d="M432.4375,329.42783v-10.5h66.5v10.5z" fill="#0007b1"/></g></g><g><g><path d="M432.9375,430.09449v-66h66v66z" fill="#0a5fce" stroke-width="NaN"/><path d="M498.87457,427.92968l-42.70814,-63.69826l24.83401,-13.7221l18.17212,28.46335l-0.34004,22.08184z" fill="#0070ff" stroke-width="0"/></g><path d="M433.21442,378.00931l36.70814,52.19826l-33.58402,-0.02789l-3.42212,-3.21335l0.34004,-22.08184z" data-paper-data="{&quot;index&quot;:null}" fill="#0070ff" stroke-width="0"/></g><path d="M169.45397,264.97267v-66h66v66z" fill="#0a5fce" stroke-width="NaN"/><path d="M192.39104,265.05785l-22.95814,-36.94826l24.83401,-13.7221l31.70814,50.44826z" fill="#0070ff" stroke-width="0"/><g><g><path d="M169.45397,329.1832v-66h66v66z" fill="#0a5fce" stroke-width="NaN"/><path d="M235.39104,327.01839l-42.70814,-63.69826l24.83402,-13.7221l18.17211,28.46335l-0.34004,22.08184z" fill="#0070ff" stroke-width="0"/></g><path d="M169.73089,277.09802l36.70814,52.19826l-33.58401,-0.02789l-3.42212,-3.21335l0.34004,-22.08184z" data-paper-data="{&quot;index&quot;:null}" fill="#0070ff" stroke-width="0"/></g><g><g><path d="M169.24458,230.48228v-66h66v66z" fill="#0a5fce" stroke-width="NaN"/><path d="M235.18165,228.31747l-42.70814,-63.69826l24.83402,-13.7221l18.17211,28.46335l-0.34004,22.08184z" fill="#0070ff" stroke-width="0"/></g><path d="M169.5215,178.3971l36.70814,52.19826l-33.58402,-0.02789l-3.42211,-3.21335l0.34004,-22.08184z" data-paper-data="{&quot;index&quot;:null}" fill="#0070ff" stroke-width="0"/></g><g><path d="M168.76154,166.27176v-66h66v66z" fill="#0a5fce" stroke-width="NaN"/><path d="M191.69861,166.35694l-22.95814,-36.94826l24.83401,-13.7221l31.70814,50.44826z" fill="#0070ff" stroke-width="0"/><g stroke-width="0"><path d="M168.26154,110.27176v-10.5h66.5v10.5z" fill="#49b6ff"/><path d="M168.26154,120.27176v-10.5h66.5v10.5z" fill="#0063ce"/><path d="M168.26154,130.77176v-10.5h66.5v10.5z" fill="#0007b1"/></g></g><g><g><path d="M104.53405,329.91999v-66h66v66z" fill="#0a5fce" stroke-width="NaN"/><path d="M170.47111,327.75518l-42.70814,-63.69826l24.83401,4.4444l18.17211,10.29685l-0.34004,22.08184z" fill="#0070ff" stroke-width="0"/></g><path d="M104.81096,277.83481l36.70814,52.19826l-33.58401,-0.02789l-3.42211,-3.21335l0.34004,-22.08184z" data-paper-data="{&quot;index&quot;:null}" fill="#0070ff" stroke-width="0"/></g><g stroke-width="0"><path d="M104.6738,274.72642v-10.5h66.5v10.5z" fill="#49b6ff"/><path d="M104.6738,284.72642v-10.5h66.5v10.5z" fill="#0063ce"/><path d="M104.6738,295.22642v-10.5h66.5v10.5z" fill="#0007b1"/></g><g><path d="M233.92999,167.22512v-66h66v66z" fill="#0a5fce" stroke-width="NaN"/><path d="M256.86706,167.3103l-22.95814,-36.94826l24.83401,-13.7221l31.70814,50.44826z" fill="#0070ff" stroke-width="0"/><g stroke-width="0"><path d="M233.42999,111.22512v-10.5h66.5v10.5z" fill="#49b6ff"/><path d="M233.42999,121.22512v-10.5h66.5v10.5z" fill="#0063ce"/><path d="M233.42999,131.72512v-10.5h66.5v10.5z" fill="#0007b1"/></g></g><g><path d="M435.50056,162.72062v-66h66v66z" fill="#0a5fce" stroke-width="NaN"/><path d="M458.43763,162.8058l-22.95814,-36.94826l24.83402,-13.7221l31.70814,50.44826z" fill="#0070ff" stroke-width="0"/><g stroke-width="0"><path d="M435.00056,106.72062v-10.5h66.5v10.5z" fill="#49b6ff"/><path d="M435.00056,116.72062v-10.5h66.5v10.5z" fill="#0063ce"/><path d="M435.00056,127.22062v-10.5h66.5v10.5z" fill="#0007b1"/></g></g></g></g></svg>