<svg version="1.1" xmlns="http://www.w3.org/2000/svg" xmlns:xlink="http://www.w3.org/1999/xlink" width="110.33333" height="106.33333" viewBox="0,0,110.33333,106.33333"><g transform="translate(-190.80625,-129.66042)"><g data-paper-data="{&quot;isPaintingLayer&quot;:true}" fill-rule="nonzero" stroke-linecap="butt" stroke-linejoin="miter" stroke-miterlimit="10" stroke-dasharray="" stroke-dashoffset="0" style="mix-blend-mode: normal"><path d="M235.97472,162.72105l-0.484,0.982l-0.001,0.002l0.485,-0.984" fill="#fec239" stroke="#000000" stroke-width="2"/><path d="M258.75172,180.60205v0l0.783,-0.764l-0.783,0.764" fill="#fec239" stroke="#000000" stroke-width="2"/><path d="M220.46372,179.83805l0.783,0.764v0l-0.783,-0.764" fill="#fec239" stroke="#000000" stroke-width="2"/><path d="M244.50872,163.70505l-0.001,-0.002l-0.484,-0.982l0.485,0.984" fill="#fec239" stroke="#000000" stroke-width="2"/><path d="M247.07372,199.36705l0.006,0.003l0.969,0.51l-0.975,-0.513" fill="#fec239" stroke="#000000" stroke-width="2"/><path d="M231.94972,199.88005l0.969,-0.51l0.006,-0.003l-0.975,0.513" fill="#fec239" stroke="#000000" stroke-width="2"/><path d="M249.01672,200.38905l-0.968,-0.509l0.975,0.512l-0.007,-0.003" fill="#fec239" stroke="#000000" stroke-width="2"/><path d="M236.45872,161.74105l0.001,-0.002l-0.485,0.982l0.484,-0.98" fill="#fec239" stroke="#000000" stroke-width="2"/><path d="M260.31872,179.07605l-0.784,0.762l0.784,-0.762v0" fill="#fec239" stroke="#000000" stroke-width="2"/><path d="M219.68072,179.07605v0l0.783,0.762l-0.783,-0.762" fill="#fec239" stroke="#000000" stroke-width="2"/><path d="M230.98272,200.38905l-0.007,0.003l0.974,-0.512l-0.967,0.509" fill="#fec239" stroke="#000000" stroke-width="2"/><path d="M243.53972,161.74105l0.484,0.98l-0.485,-0.982l0.001,0.002" fill="#fec239" stroke="#000000" stroke-width="2"/><path d="M253.02672,186.18505l1.537,8.963l0.185,1.078c0.743,4.335 -1.831,6.206 -5.722,4.165l-0.975,-0.512l-0.969,-0.51c-0.002,-0.001 -0.004,-0.002 -0.006,-0.003l-7.074,-3.72l-7.075,3.72c-0.002,0.001 -0.004,0.002 -0.006,0.003l-0.969,0.51l-0.975,0.512c-3.891,2.041 -6.465,0.17 -5.722,-4.165l0.185,-1.078l1.537,-8.963l-5.729,-5.583v0l-0.783,-0.764l-0.783,-0.763c-3.151,-3.071 -2.166,-6.101 2.189,-6.734l1.082,-0.157l8.998,-1.308l3.54,-7.172c0,-0.001 0,-0.002 0.001,-0.002l0.483,-0.981l0.485,-0.982c1.947,-3.942 5.132,-3.942 7.079,0l0.484,0.982l0.484,0.981c0,0 0.001,0.001 0.001,0.002l3.54,7.172l8.998,1.308l1.082,0.157c4.355,0.632 5.339,3.663 2.189,6.734l-0.783,0.763l-0.783,0.764v0z" fill="#ffd800" stroke="#000000" stroke-width="2"/><path d="M190.80625,235.99375v-106.33333h110.33333v106.33333z" fill="none" stroke="none" stroke-width="0"/></g></g></svg>