<svg version="1.1" xmlns="http://www.w3.org/2000/svg" xmlns:xlink="http://www.w3.org/1999/xlink" width="525.23506" height="231.77974" viewBox="0,0,525.23506,231.77974"><g transform="translate(26.0625,-198.42783)"><g data-paper-data="{&quot;isPaintingLayer&quot;:true}" fill-rule="nonzero" stroke="none" stroke-linecap="butt" stroke-linejoin="miter" stroke-miterlimit="10" stroke-dasharray="" stroke-dashoffset="0" style="mix-blend-mode: normal"><g><g><path d="M-25.72916,430.09449v-66h66v66z" fill="#0a5fce" stroke-width="NaN"/><path d="M40.2079,427.92968l-42.70814,-63.69826l24.83402,-13.7221l18.17211,28.46335l-0.34004,22.08184z" fill="#0070ff" stroke-width="0"/></g><path d="M-25.45225,378.00931l36.70814,52.19826l-33.58401,-0.02789l-3.42212,-3.21335l0.34004,-22.08184z" data-paper-data="{&quot;index&quot;:null}" fill="#0070ff" stroke-width="0"/></g><g><path d="M-25.5625,364.92783v-66h66v66z" fill="#0a5fce" stroke-width="NaN"/><path d="M-2.62543,365.01301l-22.95814,-36.94826l24.83402,-13.7221l31.70814,50.44826z" fill="#0070ff" stroke-width="0"/><g stroke-width="0"><path d="M-26.0625,308.92783v-10.5h66.5v10.5z" fill="#49b6ff"/><path d="M-26.0625,318.92783v-10.5h66.5v10.5z" fill="#0063ce"/><path d="M-26.0625,329.42783v-10.5h66.5v10.5z" fill="#0007b1"/></g></g><g><path d="M39.9375,364.92783v-66h66v66z" fill="#0a5fce" stroke-width="NaN"/><path d="M62.87457,365.01301l-22.95814,-36.94826l24.83401,-13.7221l31.70814,50.44826z" fill="#0070ff" stroke-width="0"/><g stroke-width="0"><path d="M39.4375,308.92783v-10.5h66.5v10.5z" fill="#49b6ff"/><path d="M39.4375,318.92783v-10.5h66.5v10.5z" fill="#0063ce"/><path d="M39.4375,329.42783v-10.5h66.5v10.5z" fill="#0007b1"/></g></g><g><g><path d="M39.9375,430.09449v-66h66v66z" fill="#0a5fce" stroke-width="NaN"/><path d="M105.87457,427.92968l-42.70814,-63.69826l24.83402,-13.7221l18.17211,28.46335l-0.34004,22.08184z" fill="#0070ff" stroke-width="0"/></g><path d="M40.21442,378.00931l36.70814,52.19826l-33.58401,-0.02789l-3.42212,-3.21335l0.34004,-22.08184z" data-paper-data="{&quot;index&quot;:null}" fill="#0070ff" stroke-width="0"/></g><g><g><path d="M105.27084,430.09449v-66h66v66z" fill="#0a5fce" stroke-width="NaN"/><path d="M171.2079,427.92968l-42.70814,-63.69826l24.83401,-13.7221l18.17211,28.46335l-0.34004,22.08184z" fill="#0070ff" stroke-width="0"/></g><path d="M105.54775,378.00931l36.70814,52.19826l-33.58401,-0.02789l-3.42211,-3.21335l0.34004,-22.08184z" data-paper-data="{&quot;index&quot;:null}" fill="#0070ff" stroke-width="0"/></g><g><path d="M105.4375,364.92783v-66h66v66z" fill="#0a5fce" stroke-width="NaN"/><path d="M128.37457,365.01301l-22.95814,-36.94826l24.83401,-13.7221l31.70814,50.44826z" fill="#0070ff" stroke-width="0"/><g stroke-width="0"><path d="M104.9375,308.92783v-10.5h66.5v10.5z" fill="#49b6ff"/><path d="M104.9375,318.92783v-10.5h66.5v10.5z" fill="#0063ce"/><path d="M104.9375,329.42783v-10.5h66.5v10.5z" fill="#0007b1"/></g></g><g><path d="M170.9375,364.92783v-66h66v66z" fill="#0a5fce" stroke-width="NaN"/><path d="M193.87457,365.01301l-22.95814,-36.94826l24.83401,-13.7221l31.70814,50.44826z" fill="#0070ff" stroke-width="0"/><g stroke-width="0"><path d="M170.4375,308.92783v-10.5h66.5v10.5z" fill="#49b6ff"/><path d="M170.4375,318.92783v-10.5h66.5v10.5z" fill="#0063ce"/><path d="M170.4375,329.42783v-10.5h66.5v10.5z" fill="#0007b1"/></g></g><g><g><path d="M170.9375,430.09449v-66h66v66z" fill="#0a5fce" stroke-width="NaN"/><path d="M236.87457,427.92968l-42.70814,-63.69826l24.83402,-13.7221l18.17211,28.46335l-0.34004,22.08184z" fill="#0070ff" stroke-width="0"/></g><path d="M171.21442,378.00931l36.70814,52.19826l-33.58402,-0.02789l-3.42211,-3.21335l0.34004,-22.08184z" data-paper-data="{&quot;index&quot;:null}" fill="#0070ff" stroke-width="0"/></g><g><g><path d="M236.27084,430.09449v-66h66v66z" fill="#0a5fce" stroke-width="NaN"/><path d="M302.2079,427.92968l-42.70814,-63.69826l24.83401,-13.7221l18.17212,28.46335l-0.34004,22.08184z" fill="#0070ff" stroke-width="0"/></g><path d="M236.54775,378.00931l36.70814,52.19826l-33.58401,-0.02789l-3.42212,-3.21335l0.34004,-22.08184z" data-paper-data="{&quot;index&quot;:null}" fill="#0070ff" stroke-width="0"/></g><g><path d="M236.4375,364.92783v-66h66v66z" fill="#0a5fce" stroke-width="NaN"/><path d="M259.37457,365.01301l-22.95814,-36.94826l24.83401,-13.7221l31.70814,50.44826z" fill="#0070ff" stroke-width="0"/><g stroke-width="0"><path d="M235.9375,308.92783v-10.5h66.5v10.5z" fill="#49b6ff"/><path d="M235.9375,318.92783v-10.5h66.5v10.5z" fill="#0063ce"/><path d="M235.9375,329.42783v-10.5h66.5v10.5z" fill="#0007b1"/></g></g><g><path d="M301.9375,364.92783v-66h66v66z" fill="#0a5fce" stroke-width="NaN"/><path d="M324.87457,365.01301l-22.95814,-36.94826l24.83402,-13.7221l31.70814,50.44826z" fill="#0070ff" stroke-width="0"/><g stroke-width="0"><path d="M301.4375,308.92783v-10.5h66.5v10.5z" fill="#49b6ff"/><path d="M301.4375,318.92783v-10.5h66.5v10.5z" fill="#0063ce"/><path d="M301.4375,329.42783v-10.5h66.5v10.5z" fill="#0007b1"/></g></g><g><g><path d="M301.9375,430.09449v-66h66v66z" fill="#0a5fce" stroke-width="NaN"/><path d="M367.87457,427.92968l-42.70814,-63.69826l24.83402,-13.7221l18.17212,28.46335l-0.34004,22.08184z" fill="#0070ff" stroke-width="0"/></g><path d="M302.21442,378.00931l36.70814,52.19826l-33.58402,-0.02789l-3.42212,-3.21335l0.34004,-22.08184z" data-paper-data="{&quot;index&quot;:null}" fill="#0070ff" stroke-width="0"/></g><g><g><path d="M367.27084,430.09449v-66h66v66z" fill="#0a5fce" stroke-width="NaN"/><path d="M433.2079,427.92968l-42.70814,-63.69826l24.83401,-13.7221l18.17212,28.46335l-0.34004,22.08184z" fill="#0070ff" stroke-width="0"/></g><path d="M367.54775,378.00931l36.70814,52.19826l-33.58402,-0.02789l-3.42211,-3.21335l0.34004,-22.08184z" data-paper-data="{&quot;index&quot;:null}" fill="#0070ff" stroke-width="0"/></g><g><path d="M367.4375,364.92783v-66h66v66z" fill="#0a5fce" stroke-width="NaN"/><path d="M390.37457,365.01301l-22.95814,-36.94826l24.83402,-13.7221l31.70814,50.44826z" fill="#0070ff" stroke-width="0"/><g stroke-width="0"><path d="M366.9375,308.92783v-10.5h66.5v10.5z" fill="#49b6ff"/><path d="M366.9375,318.92783v-10.5h66.5v10.5z" fill="#0063ce"/><path d="M366.9375,329.42783v-10.5h66.5v10.5z" fill="#0007b1"/></g></g><g><path d="M432.9375,364.92783v-66h66v66z" fill="#0a5fce" stroke-width="NaN"/><path d="M455.87457,365.01301l-22.95814,-36.94826l24.83402,-13.7221l31.70814,50.44826z" fill="#0070ff" stroke-width="0"/><g stroke-width="0"><path d="M432.4375,308.92783v-10.5h66.5v10.5z" fill="#49b6ff"/><path d="M432.4375,318.92783v-10.5h66.5v10.5z" fill="#0063ce"/><path d="M432.4375,329.42783v-10.5h66.5v10.5z" fill="#0007b1"/></g></g><g><g><path d="M432.9375,430.09449v-66h66v66z" fill="#0a5fce" stroke-width="NaN"/><path d="M498.87457,427.92968l-42.70814,-63.69826l24.83401,-13.7221l18.17212,28.46335l-0.34004,22.08184z" fill="#0070ff" stroke-width="0"/></g><path d="M433.21442,378.00931l36.70814,52.19826l-33.58402,-0.02789l-3.42212,-3.21335l0.34004,-22.08184z" data-paper-data="{&quot;index&quot;:null}" fill="#0070ff" stroke-width="0"/></g><g><path d="M215.51108,329.77029v-66h66v66z" fill="#0a5fce" stroke-width="NaN"/><path d="M238.44815,329.85547l-22.95814,-36.94826l24.83401,-13.7221l31.70814,50.44826z" fill="#0070ff" stroke-width="0"/><path d="M215.33939,273.77029v-10.5h66.5v10.5z" fill="#49b6ff" stroke-width="0"/><path d="M215.33939,283.77029v-10.5h66.5v10.5z" fill="#0063ce" stroke-width="0"/><path d="M215.33939,294.27029v-10.5h66.5v10.5z" fill="#0007b1" stroke-width="0"/></g><g><path d="M247.13559,329.77029v-66h66v66z" fill="#0070ff" stroke-width="NaN"/><path d="M270.07266,329.85547l-22.95814,-36.94826l24.83401,-13.7221l31.70814,50.44826z" fill="#0a5fce" stroke-width="0"/><path d="M246.9639,273.77029v-10.5h66.5v10.5z" fill="#49b6ff" stroke-width="0"/><path d="M246.9639,283.77029v-10.5h66.5v10.5z" fill="#0063ce" stroke-width="0"/><path d="M246.9639,294.27029v-10.5h66.5v10.5z" fill="#0007b1" stroke-width="0"/></g><g><path d="M333.5351,264.92783v-66h66v66z" fill="#0070ff" stroke-width="NaN"/><path d="M356.47217,265.01301l-22.95814,-36.94826l24.83402,-13.7221l31.70814,50.44826z" fill="#0a5fce" stroke-width="0"/><g stroke-width="0"><path d="M333.0351,208.92783v-10.5h66.5v10.5z" fill="#49b6ff"/><path d="M333.0351,218.92783v-10.5h66.5v10.5z" fill="#0063ce"/><path d="M333.0351,229.42783v-10.5h66.5v10.5z" fill="#0007b1"/></g></g><g><g><path d="M333.5351,330.09449v-66h66v66z" fill="#0070ff" stroke-width="NaN"/><path d="M399.47217,327.92968l-42.70814,-63.69826l24.83402,-13.7221l18.17212,28.46335l-0.34004,22.08184z" fill="#0a5fce" stroke-width="0"/></g><path d="M333.81202,278.00931l36.70814,52.19826l-33.58402,-0.02789l-3.42212,-3.21335l0.34004,-22.08184z" data-paper-data="{&quot;index&quot;:null}" fill="#0a5fce" stroke-width="0"/></g></g></g></svg>