<svg version="1.1" xmlns="http://www.w3.org/2000/svg" xmlns:xlink="http://www.w3.org/1999/xlink" width="80.7502" height="63.83111" viewBox="0,0,80.7502,63.83111"><g transform="translate(-204.50795,-148.31229)"><g data-paper-data="{&quot;isPaintingLayer&quot;:true}" fill-rule="nonzero" stroke-linejoin="miter" stroke-miterlimit="10" stroke-dasharray="" stroke-dashoffset="0" style="mix-blend-mode: normal"><path d="M240,157.4925c16.69246,0 30.22437,12.5722 30.22437,28.08079c0,15.5086 -13.31756,16.93423 -30.01001,16.93423c-16.69246,0 -30.43872,-1.42563 -30.43872,-16.93423c0,-15.50859 13.53191,-28.08079 30.22436,-28.08079z" data-paper-data="{&quot;index&quot;:null}" fill="#46d324" stroke="#000000" stroke-width="3.5" stroke-linecap="butt"/><path d="M268.71662,189.72885c0,6.92055 -12.77219,12.53077 -28.52749,12.53077c-8.02477,0 -16.89081,-0.86565 -22.79381,-4.19582c-5.68656,-3.20806 -8.5658,-8.81839 -8.2665,-12.20082c0.74428,-8.41124 1.2023,-6.45974 5.24056,-3.70078c5.36438,3.66497 16.23118,9.89951 25.21987,9.89951c10.98067,0 22.42435,-7.18945 27.62473,-7.66896c2.26124,-0.2085 1.50265,3.23884 1.50265,5.33611z" fill="#3aae1e" stroke="none" stroke-width="0" stroke-linecap="butt"/><path d="M240,157.49249c16.69246,0 30.22437,12.5722 30.22437,28.08079c0,15.5086 -13.31756,16.93423 -30.01001,16.93423c-16.69246,0 -30.43872,-1.42563 -30.43872,-16.93423c0,-15.50859 13.53191,-28.08079 30.22436,-28.08079z" data-paper-data="{&quot;index&quot;:null}" fill="none" stroke="#000000" stroke-width="3.5" stroke-linecap="butt"/><g data-paper-data="{&quot;index&quot;:null}" fill="none" stroke="#000000" stroke-width="5" stroke-linecap="round"><path d="M258.86341,187.28815v-12.21837"/><path d="M249.80816,187.5025v-12.21836"/></g><path d="M204.50795,212.14339v-63.83111h80.7502v63.83111z" fill="none" stroke="none" stroke-width="0" stroke-linecap="butt"/></g></g></svg>