<svg version="1.1" xmlns="http://www.w3.org/2000/svg" xmlns:xlink="http://www.w3.org/1999/xlink" width="525.23506" height="314.18158" viewBox="0,0,525.23506,314.18158"><g transform="translate(26.0625,-116.02601)"><g data-paper-data="{&quot;isPaintingLayer&quot;:true}" fill-rule="nonzero" stroke="none" stroke-linecap="butt" stroke-linejoin="miter" stroke-miterlimit="10" stroke-dasharray="" stroke-dashoffset="0" style="mix-blend-mode: normal"><g><g><path d="M-25.72916,430.09451v-66h66v66z" fill="#0a5fce" stroke-width="NaN"/><path d="M40.2079,427.9297l-42.70814,-63.69826l24.83402,-13.7221l18.17211,28.46335l-0.34004,22.08184z" fill="#0070ff" stroke-width="0"/></g><path d="M-25.45225,378.00933l36.70814,52.19826l-33.58401,-0.02789l-3.42212,-3.21335l0.34004,-22.08184z" data-paper-data="{&quot;index&quot;:null}" fill="#0070ff" stroke-width="0"/></g><g><path d="M-25.5625,364.92784v-66h66v66z" fill="#0a5fce" stroke-width="NaN"/><path d="M-2.62543,365.01303l-22.95814,-36.94826l24.83402,-13.7221l31.70814,50.44826z" fill="#0070ff" stroke-width="0"/><g stroke-width="0"><path d="M-26.0625,308.92784v-10.5h66.5v10.5z" fill="#49b6ff"/><path d="M-26.0625,318.92784v-10.5h66.5v10.5z" fill="#0063ce"/><path d="M-26.0625,329.42784v-10.5h66.5v10.5z" fill="#0007b1"/></g></g><g><path d="M39.9375,364.92784v-66h66v66z" fill="#0a5fce" stroke-width="NaN"/><path d="M62.87457,365.01303l-22.95814,-36.94826l24.83401,-13.7221l31.70814,50.44826z" fill="#0070ff" stroke-width="0"/><g stroke-width="0"><path d="M39.4375,308.92784v-10.5h66.5v10.5z" fill="#49b6ff"/><path d="M39.4375,318.92784v-10.5h66.5v10.5z" fill="#0063ce"/><path d="M39.4375,329.42784v-10.5h66.5v10.5z" fill="#0007b1"/></g></g><g><g><path d="M39.9375,430.09451v-66h66v66z" fill="#0a5fce" stroke-width="NaN"/><path d="M105.87457,427.9297l-42.70814,-63.69826l24.83402,-13.7221l18.17211,28.46335l-0.34004,22.08184z" fill="#0070ff" stroke-width="0"/></g><path d="M40.21442,378.00933l36.70814,52.19826l-33.58401,-0.02789l-3.42212,-3.21335l0.34004,-22.08184z" data-paper-data="{&quot;index&quot;:null}" fill="#0070ff" stroke-width="0"/></g><g><g><path d="M105.27084,430.09451v-66h66v66z" fill="#0a5fce" stroke-width="NaN"/><path d="M171.2079,427.9297l-42.70814,-63.69826l24.83401,-13.7221l18.17211,28.46335l-0.34004,22.08184z" fill="#0070ff" stroke-width="0"/></g><path d="M105.54775,378.00933l36.70814,52.19826l-33.58401,-0.02789l-3.42211,-3.21335l0.34004,-22.08184z" data-paper-data="{&quot;index&quot;:null}" fill="#0070ff" stroke-width="0"/></g><g><path d="M105.4375,364.92784v-66h66v66z" fill="#0a5fce" stroke-width="NaN"/><path d="M128.37457,365.01303l-22.95814,-36.94826l24.83401,-13.7221l31.70814,50.44826z" fill="#0070ff" stroke-width="0"/><g stroke-width="0"><path d="M104.9375,308.92784v-10.5h66.5v10.5z" fill="#49b6ff"/><path d="M104.9375,318.92784v-10.5h66.5v10.5z" fill="#0063ce"/><path d="M104.9375,329.42784v-10.5h66.5v10.5z" fill="#0007b1"/></g></g><g><path d="M170.9375,364.92784v-66h66v66z" fill="#0a5fce" stroke-width="NaN"/><path d="M193.87457,365.01303l-22.95814,-36.94826l24.83401,-13.7221l31.70814,50.44826z" fill="#0070ff" stroke-width="0"/><g stroke-width="0"><path d="M170.4375,308.92784v-10.5h66.5v10.5z" fill="#49b6ff"/><path d="M170.4375,318.92784v-10.5h66.5v10.5z" fill="#0063ce"/><path d="M170.4375,329.42784v-10.5h66.5v10.5z" fill="#0007b1"/></g></g><g><g><path d="M170.9375,430.09451v-66h66v66z" fill="#0a5fce" stroke-width="NaN"/><path d="M236.87457,427.9297l-42.70814,-63.69826l24.83402,-13.7221l18.17211,28.46335l-0.34004,22.08184z" fill="#0070ff" stroke-width="0"/></g><path d="M171.21442,378.00933l36.70814,52.19826l-33.58402,-0.02789l-3.42211,-3.21335l0.34004,-22.08184z" data-paper-data="{&quot;index&quot;:null}" fill="#0070ff" stroke-width="0"/></g><g><g><path d="M367.27084,430.09451v-66h66v66z" fill="#0a5fce" stroke-width="NaN"/><path d="M433.2079,427.9297l-42.70814,-63.69826l24.83401,-13.7221l18.17212,28.46335l-0.34004,22.08184z" fill="#0070ff" stroke-width="0"/></g><path d="M367.54775,378.00933l36.70814,52.19826l-33.58402,-0.02789l-3.42211,-3.21335l0.34004,-22.08184z" data-paper-data="{&quot;index&quot;:null}" fill="#0070ff" stroke-width="0"/></g><g><path d="M432.9375,364.92784v-66h66v66z" fill="#0a5fce" stroke-width="NaN"/><path d="M455.87457,365.01303l-22.95814,-36.94826l24.83402,-13.7221l31.70814,50.44826z" fill="#0070ff" stroke-width="0"/><g stroke-width="0"><path d="M432.4375,308.92784v-10.5h66.5v10.5z" fill="#49b6ff"/><path d="M432.4375,318.92784v-10.5h66.5v10.5z" fill="#0063ce"/><path d="M432.4375,329.42784v-10.5h66.5v10.5z" fill="#0007b1"/></g></g><g><g><path d="M432.9375,430.09451v-66h66v66z" fill="#0a5fce" stroke-width="NaN"/><path d="M498.87457,427.9297l-42.70814,-63.69826l24.83401,-13.7221l18.17212,28.46335l-0.34004,22.08184z" fill="#0070ff" stroke-width="0"/></g><path d="M433.21442,378.00933l36.70814,52.19826l-33.58402,-0.02789l-3.42212,-3.21335l0.34004,-22.08184z" data-paper-data="{&quot;index&quot;:null}" fill="#0070ff" stroke-width="0"/></g><g><g><path d="M236.28079,430.09451v-66h66v66z" fill="#0a5fce" stroke-width="NaN"/><path d="M302.21785,427.9297l-42.70814,-63.69826l24.83401,-13.7221l18.17212,28.46335l-0.34004,22.08184z" fill="#0070ff" stroke-width="0"/></g><path d="M236.5577,378.00933l36.70814,52.19826l-33.58402,-0.02789l-3.42211,-3.21335l0.34004,-22.08184z" data-paper-data="{&quot;index&quot;:null}" fill="#0070ff" stroke-width="0"/></g><g><path d="M236.44745,364.92784v-66h66v66z" fill="#0a5fce" stroke-width="NaN"/><path d="M259.38452,365.01303l-22.95814,-36.94826l24.83402,-13.7221l31.70814,50.44826z" fill="#0070ff" stroke-width="0"/><g stroke-width="0"><path d="M235.94745,308.92784v-10.5h66.5v10.5z" fill="#49b6ff"/><path d="M235.94745,318.92784v-10.5h66.5v10.5z" fill="#0063ce"/><path d="M235.94745,329.42784v-10.5h66.5v10.5z" fill="#0007b1"/></g></g><g><g><path d="M301.94745,430.09451v-66h66v66z" fill="#0a5fce" stroke-width="NaN"/><path d="M367.88452,427.9297l-42.70814,-63.69826l24.83401,-13.7221l18.17212,28.46335l-0.34004,22.08184z" fill="#0070ff" stroke-width="0"/></g><path d="M302.22437,378.00933l36.70814,52.19826l-33.58402,-0.02789l-3.42212,-3.21335l0.34004,-22.08184z" data-paper-data="{&quot;index&quot;:null}" fill="#0070ff" stroke-width="0"/></g><g><path d="M120.47191,182.52601v-66h66v66z" fill="#0a5fce" stroke-width="NaN"/><path d="M143.40898,182.6112l-22.95814,-36.94826l24.83401,-13.7221l31.70814,50.44826z" fill="#0070ff" stroke-width="0"/><g stroke-width="0"><path d="M119.97191,126.52601v-10.5h66.5v10.5z" fill="#49b6ff"/><path d="M119.97191,136.52601v-10.5h66.5v10.5z" fill="#0063ce"/><path d="M119.97191,147.02601v-10.5h66.5v10.5z" fill="#0007b1"/></g></g><g><path d="M185.97191,182.52601v-66h66v66z" fill="#0a5fce" stroke-width="NaN"/><path d="M208.90898,182.6112l-22.95814,-36.94826l24.83401,-13.7221l31.70814,50.44826z" fill="#0070ff" stroke-width="0"/><g stroke-width="0"><path d="M185.47191,126.52601v-10.5h66.5v10.5z" fill="#49b6ff"/><path d="M185.47191,136.52601v-10.5h66.5v10.5z" fill="#0063ce"/><path d="M185.47191,147.02601v-10.5h66.5v10.5z" fill="#0007b1"/></g></g><g><path d="M251.4719,182.52601v-66h66v66z" fill="#0a5fce" stroke-width="NaN"/><path d="M274.40898,182.6112l-22.95814,-36.94826l24.83401,-13.7221l31.70814,50.44826z" fill="#0070ff" stroke-width="0"/><g stroke-width="0"><path d="M250.9719,126.52601v-10.5h66.5v10.5z" fill="#49b6ff"/><path d="M250.9719,136.52601v-10.5h66.5v10.5z" fill="#0063ce"/><path d="M250.9719,147.02601v-10.5h66.5v10.5z" fill="#0007b1"/></g></g><g><path d="M409.25082,194.96976v-66h66v66z" fill="#0a5fce" stroke-width="NaN"/><path d="M432.18789,195.05495l-22.95814,-36.94826l24.83402,-13.7221l31.70814,50.44826z" fill="#0070ff" stroke-width="0"/><g stroke-width="0"><path d="M408.75082,138.96976v-10.5h66.5v10.5z" fill="#49b6ff"/><path d="M408.75082,148.96976v-10.5h66.5v10.5z" fill="#0063ce"/><path d="M408.75082,159.46976v-10.5h66.5v10.5z" fill="#0007b1"/></g></g><g><path d="M215.38088,334.88556v-66h66v66z" fill="#0a5fce" stroke-width="NaN"/><path d="M238.31795,334.97075l-22.95814,-36.94826l24.83402,-13.7221l31.70814,50.44826z" fill="#0070ff" stroke-width="0"/><g stroke-width="0"><path d="M214.88088,278.88556v-10.5h66.5v10.5z" fill="#49b6ff"/><path d="M214.88088,288.88556v-10.5h66.5v10.5z" fill="#0063ce"/><path d="M214.88088,299.38556v-10.5h66.5v10.5z" fill="#0007b1"/></g></g><g><path d="M151.48805,335.1049v-66h66v66z" fill="#0a5fce" stroke-width="NaN"/><path d="M174.42512,335.19009l-22.95814,-36.94826l24.83402,-13.7221l31.70814,50.44826z" fill="#0070ff" stroke-width="0"/><g stroke-width="0"><path d="M150.98805,279.1049v-10.5h66.5v10.5z" fill="#49b6ff"/><path d="M150.98805,289.1049v-10.5h66.5v10.5z" fill="#0063ce"/><path d="M150.98805,299.6049v-10.5h66.5v10.5z" fill="#0007b1"/></g></g><g><path d="M367.52803,392.43811v-66h66v66z" fill="#0a5fce" stroke-width="NaN"/><path d="M390.4651,392.5233l-22.95814,-36.94826l24.83402,-13.7221l31.70814,50.44826z" fill="#0070ff" stroke-width="0"/><g stroke-width="0"><path d="M367.02803,336.43811v-10.5h66.5v10.5z" fill="#49b6ff"/><path d="M367.02803,346.43811v-10.5h66.5v10.5z" fill="#0063ce"/><path d="M367.02803,356.93811v-10.5h66.5v10.5z" fill="#0007b1"/></g></g><g><path d="M303.6352,392.65745v-66h66v66z" fill="#0a5fce" stroke-width="NaN"/><path d="M326.57227,392.74264l-22.95814,-36.94826l24.83402,-13.7221l31.70814,50.44826z" fill="#0070ff" stroke-width="0"/><g stroke-width="0"><path d="M303.1352,336.65745v-10.5h66.5v10.5z" fill="#49b6ff"/><path d="M303.1352,346.65745v-10.5h66.5v10.5z" fill="#0063ce"/><path d="M303.1352,357.15745v-10.5h66.5v10.5z" fill="#0007b1"/></g></g><g><path d="M269.98541,183.02151v-66h66v66z" fill="#0a5fce" stroke-width="NaN"/><path d="M292.92249,183.1067l-22.95814,-36.94826l24.83401,-13.7221l31.70814,50.44826z" fill="#0070ff" stroke-width="0"/><g stroke-width="0"><path d="M269.48541,127.02151v-10.5h66.5v10.5z" fill="#49b6ff"/><path d="M269.48541,137.02151v-10.5h66.5v10.5z" fill="#0063ce"/><path d="M269.48541,147.52151v-10.5h66.5v10.5z" fill="#0007b1"/></g></g><path d="M367.65217,291.9997v-66h66v66z" fill="#0a5fce" stroke-width="NaN"/><path d="M390.58924,292.08488l-22.95814,-36.94826l24.83401,-13.7221l31.70814,50.44826z" fill="#0070ff" stroke-width="0"/><g><g><path d="M367.65217,356.21023v-66h66v66z" fill="#0a5fce" stroke-width="NaN"/><path d="M433.58924,354.04542l-42.70814,-63.69826l24.83402,-13.7221l18.17211,28.46335l-0.34004,22.08184z" fill="#0070ff" stroke-width="0"/></g><path d="M367.92909,304.12505l36.70814,52.19826l-33.58401,-0.02789l-3.42212,-3.21335l0.34004,-22.08184z" data-paper-data="{&quot;index&quot;:null}" fill="#0070ff" stroke-width="0"/></g><g><g><path d="M367.44278,257.50931v-66h66v66z" fill="#0a5fce" stroke-width="NaN"/><path d="M433.37985,255.3445l-42.70814,-63.69826l24.83402,-13.7221l18.17211,28.46335l-0.34004,22.08184z" fill="#0070ff" stroke-width="0"/></g><path d="M367.7197,205.42413l36.70814,52.19826l-33.58402,-0.02789l-3.42211,-3.21335l0.34004,-22.08184z" data-paper-data="{&quot;index&quot;:null}" fill="#0070ff" stroke-width="0"/></g><g><g><path d="M302.73225,356.94702v-66h66v66z" fill="#0a5fce" stroke-width="NaN"/><path d="M368.66931,354.78221l-42.70814,-63.69826l24.83401,4.4444l18.17211,10.29685l-0.34004,22.08184z" fill="#0070ff" stroke-width="0"/></g><path d="M303.00916,304.86184l36.70814,52.19826l-33.58401,-0.02789l-3.42211,-3.21335l0.34004,-22.08184z" data-paper-data="{&quot;index&quot;:null}" fill="#0070ff" stroke-width="0"/></g><g stroke-width="0"><path d="M302.872,301.75345v-10.5h66.5v10.5z" fill="#49b6ff"/><path d="M302.872,311.75345v-10.5h66.5v10.5z" fill="#0063ce"/><path d="M302.872,322.25345v-10.5h66.5v10.5z" fill="#0007b1"/></g><g><path d="M367.76032,194.25215v-66h66v66z" fill="#0a5fce" stroke-width="NaN"/><path d="M390.69739,194.33733l-22.95814,-36.94826l24.83401,-13.7221l31.70814,50.44826z" fill="#0070ff" stroke-width="0"/><g stroke-width="0"><path d="M367.26032,138.25215v-10.5h66.5v10.5z" fill="#49b6ff"/><path d="M367.26032,148.25215v-10.5h66.5v10.5z" fill="#0063ce"/><path d="M367.26032,158.75215v-10.5h66.5v10.5z" fill="#0007b1"/></g></g></g></g></svg>