<svg version="1.1" xmlns="http://www.w3.org/2000/svg" xmlns:xlink="http://www.w3.org/1999/xlink" width="91.71901" height="106.53789" viewBox="0,0,91.71901,106.53789"><g transform="translate(-194.92628,-126.73107)"><g data-paper-data="{&quot;isPaintingLayer&quot;:true}" fill-rule="nonzero" stroke-linecap="butt" stroke-linejoin="miter" stroke-miterlimit="10" stroke-dasharray="" stroke-dashoffset="0" style="mix-blend-mode: normal"><path d="M194.92628,233.26896v-106.53789h90.14744v106.53789z" fill="none" stroke="none" stroke-width="NaN"/><g><path d="M230.09531,194.10241l13.39506,-12.03052l5.68475,6.32953l-13.39506,12.03052z" fill="#8a5f00" stroke="#000000" stroke-width="1.5"/><path d="M243.62532,179.55726c0,0 13.48034,-8.38404 19.36747,-13.67145c4.78627,-4.2987 14.78212,-16.17987 19.07149,-20.23669c1.07449,-1.01625 1.88094,-0.89859 2.11979,0.15451c0.50229,2.21443 1.33262,5.87505 1.64949,7.27209c0.24263,1.06962 0.21251,2.81972 -0.38006,3.47845c-2.70883,3.01133 -10.42568,12.08526 -15.27675,16.44215c-5.96133,5.35406 -19.41245,14.50964 -19.41245,14.50964z" fill="#c9c9c9" stroke="#000000" stroke-width="1.5"/><path d="M239.22551,187.33002l2.20797,-1.98304l4.30565,4.79401l-2.20797,1.98304z" fill="#d18f00" stroke="none" stroke-width="0"/><path d="M235.14542,190.93276l2.20798,-1.98305l4.30565,4.79401l-2.20798,1.98305z" fill="#d18f00" stroke="none" stroke-width="0"/><path d="M231.38282,194.36749l1.81907,-1.63377l4.30565,4.79401l-1.81907,1.63377z" fill="#d18f00" stroke="none" stroke-width="0"/><path d="M243.6118,179.80892c0,0 12.64464,-9.31454 18.53175,-14.60196c4.78627,-4.2987 15.43388,-15.45419 19.76912,-19.45992c1.08599,-1.00345 1.70344,-1.09621 1.65776,-0.35994c-0.09606,1.54824 1.22025,3.75841 1.15966,4.73517c-0.0464,0.74785 -1.93833,2.41646 -2.5593,3.04356c-2.83868,2.86675 -11.0366,11.40504 -15.88765,15.76195c-5.96133,5.35406 -18.75582,15.24076 -18.75582,15.24076z" fill="#989898" stroke="none" stroke-width="0"/><path d="M243.68703,179.55725c0,0 13.48034,-8.38404 19.36747,-13.67145c4.78627,-4.2987 14.78211,-16.17989 19.07149,-20.23669c1.07449,-1.01625 1.88093,-0.8986 2.11981,0.1545c0.50229,2.21443 1.33261,5.87506 1.64949,7.27209c0.24262,1.06962 0.21251,2.81972 -0.38006,3.47844c-2.70883,3.01133 -10.42568,12.08526 -15.27675,16.44215c-5.96133,5.35406 -19.41244,14.50968 -19.41244,14.50968z" fill="none" stroke="#000000" stroke-width="1.5"/><path d="M238.15034,177.82614l4.26875,-3.83391l14.41019,16.04462l-4.26875,3.83391z" fill="#382700" stroke="#000000" stroke-width="1.5"/></g></g></g></svg>