<svg version="1.1" xmlns="http://www.w3.org/2000/svg" xmlns:xlink="http://www.w3.org/1999/xlink" width="39.79488" height="50.03571" viewBox="0,0,39.79488,50.03571"><g transform="translate(-220.10256,-154.98218)"><g data-paper-data="{&quot;isPaintingLayer&quot;:true}" fill-rule="nonzero" stroke-linejoin="miter" stroke-miterlimit="10" stroke-dasharray="" stroke-dashoffset="0" style="mix-blend-mode: normal"><path d="M220.29275,198.14022c0,-11.25834 0,-32.91456 0,-38.33817c0,-2.42236 3.2538,-4.81987 6.10469,-4.81987c4.49511,0 18.85647,0 27.25,0c4.05723,0 6.14531,2.65338 6.14531,5.26862c0,5.43709 0,25.89092 0,37.17513c0,4.53722 -3.78085,7.59196 -8.83303,7.59196c-8.16085,0 -19.63888,0 -23.85714,0c-3.11716,0 -6.80982,-2.73486 -6.80982,-6.87768z" fill="#001379" stroke="none" stroke-width="0" stroke-linecap="butt"/><path d="M220.39744,168.3525v-7h39.25v7z" fill="#ff0000" stroke="none" stroke-width="0" stroke-linecap="butt"/><path d="M242.14744,181.42593c0,-2.27225 0,-5.25112 0,-6.57143c0,-1.2811 1.86497,-3.00201 3.3837,-3.00201c3.12938,0 14.3663,0 14.3663,0v12.5c0,0 -12.10333,0 -15.08058,0c-1.25261,0 -2.66942,-1.2771 -2.66942,-2.92656z" fill="#f8ffc8" stroke="none" stroke-width="0" stroke-linecap="butt"/><path d="M256.81688,181.42592v-6.85714" fill="none" stroke="#000000" stroke-width="2.5" stroke-linecap="round"/><path d="M252.53115,174.56879v6.85714" fill="none" stroke="#000000" stroke-width="2.5" stroke-linecap="round"/><path d="M220.10256,194.14022v-4.42857h39.71429v4.42857z" fill="#ff0000" stroke="none" stroke-width="0" stroke-linecap="butt"/><path d="M231.10257,195.42592v-6.85714h9.42857v6.85714z" fill="#f8ffc8" stroke="none" stroke-width="0" stroke-linecap="butt"/></g></g></svg>