<svg version="1.1" xmlns="http://www.w3.org/2000/svg" xmlns:xlink="http://www.w3.org/1999/xlink" width="606.81268" height="399.27736" viewBox="0,0,606.81268,399.27736"><g transform="translate(80.34267,-30.93027)"><g data-paper-data="{&quot;isPaintingLayer&quot;:true}" fill-rule="nonzero" stroke="none" stroke-linecap="butt" stroke-linejoin="miter" stroke-miterlimit="10" stroke-dasharray="" stroke-dashoffset="0" style="mix-blend-mode: normal"><g><path d="M460.23496,311.7535v-66h66v66z" fill="#0a5fce" stroke-width="NaN"/><path d="M526.17202,309.58867l-42.70814,-63.69826l24.83401,-13.7221l18.17212,28.46335l-0.34004,22.08184z" fill="#0070ff" stroke-width="0"/></g><g><path d="M460.40162,246.58682v-66h66v66z" fill="#0a5fce" stroke-width="NaN"/><path d="M483.33869,246.67206l-22.95814,-36.94826l24.83402,-13.7221l31.70814,50.44826z" fill="#0070ff" stroke-width="0"/><g stroke-width="0"><path d="M459.90162,190.58682v-10.5h66.5v10.5z" fill="#49b6ff"/><path d="M459.90162,200.58682v-10.5h66.5v10.5z" fill="#0063ce"/><path d="M459.90162,211.08682v-10.5h66.5v10.5z" fill="#0007b1"/></g></g><g><g><path d="M-25.72916,430.09456v-66h66v66z" fill="#0a5fce" stroke-width="NaN"/><path d="M40.2079,427.92972l-42.70814,-63.69826l24.83402,-13.7221l18.17211,28.46335l-0.34004,22.08184z" fill="#0070ff" stroke-width="0"/></g><path d="M-25.45225,378.00938l36.70814,52.19826l-33.58401,-0.02789l-3.42212,-3.21335l0.34004,-22.08184z" data-paper-data="{&quot;index&quot;:null}" fill="#0070ff" stroke-width="0"/></g><g><path d="M-25.5625,364.92783v-66h66v66z" fill="#0a5fce" stroke-width="NaN"/><path d="M-2.62543,365.01308l-22.95814,-36.94826l24.83402,-13.7221l31.70814,50.44826z" fill="#0070ff" stroke-width="0"/><g stroke-width="0"><path d="M-26.0625,308.92783v-10.5h66.5v10.5z" fill="#49b6ff"/><path d="M-26.0625,318.92783v-10.5h66.5v10.5z" fill="#0063ce"/><path d="M-26.0625,329.42783v-10.5h66.5v10.5z" fill="#0007b1"/></g></g><g><path d="M39.9375,364.92783v-66h66v66z" fill="#0a5fce" stroke-width="NaN"/><path d="M62.87457,365.01308l-22.95814,-36.94826l24.83401,-13.7221l31.70814,50.44826z" fill="#0070ff" stroke-width="0"/><g stroke-width="0"><path d="M39.4375,308.92783v-10.5h66.5v10.5z" fill="#49b6ff"/><path d="M39.4375,318.92783v-10.5h66.5v10.5z" fill="#0063ce"/><path d="M39.4375,329.42783v-10.5h66.5v10.5z" fill="#0007b1"/></g></g><g><g><path d="M39.9375,430.09456v-66h66v66z" fill="#0a5fce" stroke-width="NaN"/><path d="M105.87457,427.92972l-42.70814,-63.69826l24.83402,-13.7221l18.17211,28.46335l-0.34004,22.08184z" fill="#0070ff" stroke-width="0"/></g><path d="M40.21442,378.00938l36.70814,52.19826l-33.58401,-0.02789l-3.42212,-3.21335l0.34004,-22.08184z" data-paper-data="{&quot;index&quot;:null}" fill="#0070ff" stroke-width="0"/></g><g><g><path d="M105.27084,430.09456v-66h66v66z" fill="#0a5fce" stroke-width="NaN"/><path d="M171.2079,427.92972l-42.70814,-63.69826l24.83401,-13.7221l18.17211,28.46335l-0.34004,22.08184z" fill="#0070ff" stroke-width="0"/></g><path d="M105.54775,378.00938l36.70814,52.19826l-33.58401,-0.02789l-3.42211,-3.21335l0.34004,-22.08184z" data-paper-data="{&quot;index&quot;:null}" fill="#0070ff" stroke-width="0"/></g><g><path d="M105.4375,364.92783v-66h66v66z" fill="#0a5fce" stroke-width="NaN"/><path d="M128.37457,365.01308l-22.95814,-36.94826l24.83401,-13.7221l31.70814,50.44826z" fill="#0070ff" stroke-width="0"/><g stroke-width="0"><path d="M104.9375,308.92783v-10.5h66.5v10.5z" fill="#49b6ff"/><path d="M104.9375,318.92783v-10.5h66.5v10.5z" fill="#0063ce"/><path d="M104.9375,329.42783v-10.5h66.5v10.5z" fill="#0007b1"/></g></g><g><path d="M170.9375,364.92783v-66h66v66z" fill="#0a5fce" stroke-width="NaN"/><path d="M193.87457,365.01308l-22.95814,-36.94826l24.83401,-13.7221l31.70814,50.44826z" fill="#0070ff" stroke-width="0"/><g stroke-width="0"><path d="M170.4375,308.92783v-10.5h66.5v10.5z" fill="#49b6ff"/><path d="M170.4375,318.92783v-10.5h66.5v10.5z" fill="#0063ce"/><path d="M170.4375,329.42783v-10.5h66.5v10.5z" fill="#0007b1"/></g></g><g><g><path d="M170.9375,430.09456v-66h66v66z" fill="#0a5fce" stroke-width="NaN"/><path d="M236.87457,427.92972l-42.70814,-63.69826l24.83402,-13.7221l18.17211,28.46335l-0.34004,22.08184z" fill="#0070ff" stroke-width="0"/></g><path d="M171.21442,378.00938l36.70814,52.19826l-33.58402,-0.02789l-3.42211,-3.21335l0.34004,-22.08184z" data-paper-data="{&quot;index&quot;:null}" fill="#0070ff" stroke-width="0"/></g><g><g><path d="M367.27084,430.09456v-66h66v66z" fill="#0a5fce" stroke-width="NaN"/><path d="M433.2079,427.92972l-42.70814,-63.69826l24.83401,-13.7221l18.17212,28.46335l-0.34004,22.08184z" fill="#0070ff" stroke-width="0"/></g><path d="M367.54775,378.00938l36.70814,52.19826l-33.58402,-0.02789l-3.42211,-3.21335l0.34004,-22.08184z" data-paper-data="{&quot;index&quot;:null}" fill="#0070ff" stroke-width="0"/></g><g><path d="M367.4375,364.92783v-66h66v66z" fill="#0a5fce" stroke-width="NaN"/><path d="M390.37457,365.01308l-22.95814,-36.94826l24.83402,-13.7221l31.70814,50.44826z" fill="#0070ff" stroke-width="0"/><g stroke-width="0"><path d="M366.9375,308.92783v-10.5h66.5v10.5z" fill="#49b6ff"/><path d="M366.9375,318.92783v-10.5h66.5v10.5z" fill="#0063ce"/><path d="M366.9375,329.42783v-10.5h66.5v10.5z" fill="#0007b1"/></g></g><g><path d="M432.9375,364.92783v-66h66v66z" fill="#0a5fce" stroke-width="NaN"/><path d="M455.87457,365.01308l-22.95814,-36.94826l24.83402,-13.7221l31.70814,50.44826z" fill="#0070ff" stroke-width="0"/><g stroke-width="0"><path d="M432.4375,308.92783v-10.5h66.5v10.5z" fill="#0a5fce"/><path d="M432.4375,318.92783v-10.5h66.5v10.5z" fill="#49b6ff"/><path d="M432.4375,329.42783v-10.5h66.5v10.5z" fill="#0007b1"/></g></g><g><g><path d="M432.9375,430.09456v-66h66v66z" fill="#0a5fce" stroke-width="NaN"/><path d="M498.87457,427.92972l-42.70814,-63.69826l24.83401,-13.7221l18.17212,28.46335l-0.34004,22.08184z" fill="#0070ff" stroke-width="0"/></g><path d="M433.21442,378.00938l36.70814,52.19826l-33.58402,-0.02789l-3.42212,-3.21335l0.34004,-22.08184z" data-paper-data="{&quot;index&quot;:null}" fill="#0070ff" stroke-width="0"/></g><g><g><path d="M236.28079,430.09456v-66h66v66z" fill="#0a5fce" stroke-width="NaN"/><path d="M302.21785,427.92972l-42.70814,-63.69826l24.83401,-13.7221l18.17212,28.46335l-0.34004,22.08184z" fill="#0070ff" stroke-width="0"/></g><path d="M236.5577,378.00938l36.70814,52.19826l-33.58402,-0.02789l-3.42211,-3.21335l0.34004,-22.08184z" data-paper-data="{&quot;index&quot;:null}" fill="#0070ff" stroke-width="0"/></g><g><path d="M236.44745,364.92783v-66h66v66z" fill="#0a5fce" stroke-width="NaN"/><path d="M259.38452,365.01308l-22.95814,-36.94826l24.83402,-13.7221l31.70814,50.44826z" fill="#0070ff" stroke-width="0"/><g stroke-width="0"><path d="M235.94745,308.92783v-10.5h66.5v10.5z" fill="#49b6ff"/><path d="M235.94745,318.92783v-10.5h66.5v10.5z" fill="#0063ce"/><path d="M235.94745,329.42783v-10.5h66.5v10.5z" fill="#0007b1"/></g></g><g><path d="M301.94745,364.92783v-66h66v66z" fill="#0a5fce" stroke-width="NaN"/><path d="M324.88452,365.01308l-22.95814,-36.94826l24.83402,-13.7221l31.70814,50.44826z" fill="#0070ff" stroke-width="0"/><g stroke-width="0"><path d="M301.44745,308.92783v-10.5h66.5v10.5z" fill="#49b6ff"/><path d="M301.44745,318.92783v-10.5h66.5v10.5z" fill="#0063ce"/><path d="M301.44745,329.42783v-10.5h66.5v10.5z" fill="#0007b1"/></g></g><g><g><path d="M301.94745,430.09456v-66h66v66z" fill="#0a5fce" stroke-width="NaN"/><path d="M367.88452,427.92972l-42.70814,-63.69826l24.83401,-13.7221l18.17212,28.46335l-0.34004,22.08184z" fill="#0070ff" stroke-width="0"/></g><path d="M302.22437,378.00938l36.70814,52.19826l-33.58402,-0.02789l-3.42212,-3.21335l0.34004,-22.08184z" data-paper-data="{&quot;index&quot;:null}" fill="#0070ff" stroke-width="0"/></g><g><path d="M-79.84267,196.86798v-66h66v66z" fill="#0a5fce" stroke-width="NaN"/><path d="M-56.9056,196.95322l-22.95814,-36.94826l24.83402,-13.7221l31.70814,50.44826z" fill="#0070ff" stroke-width="0"/><g stroke-width="0"><path d="M-80.34267,140.86798v-10.5h66.5v10.5z" fill="#49b6ff"/><path d="M-80.34267,150.86798v-10.5h66.5v10.5z" fill="#0063ce"/><path d="M-80.34267,161.36798v-10.5h66.5v10.5z" fill="#0007b1"/></g></g><g><path d="M-14.34267,196.86798v-66h66v66z" fill="#0070ff" stroke-width="NaN"/><path d="M8.5944,196.95322l-22.95814,-36.94826l24.83401,-13.7221l31.70814,50.44826z" fill="#0070ff" stroke-width="0"/><g stroke-width="0"><path d="M-14.84267,140.86798v-10.5h66.5v10.5z" fill="#38c700"/><path d="M-14.84267,150.86798v-10.5h66.5v10.5z" fill="#1fa700"/><path d="M-14.84267,161.36798v-10.5h66.5v10.5z" fill="#157300"/></g></g><g><path d="M51.15733,196.86798v-66h66v66z" fill="#0a5fce" stroke-width="NaN"/><path d="M74.0944,196.95322l-22.95814,-36.94826l24.83401,-13.7221l31.70814,50.44826z" fill="#0070ff" stroke-width="0"/><g stroke-width="0"><path d="M50.65733,140.86798v-10.5h66.5v10.5z" fill="#49b6ff"/><path d="M50.65733,150.86798v-10.5h66.5v10.5z" fill="#0063ce"/><path d="M50.65733,161.36798v-10.5h66.5v10.5z" fill="#0007b1"/></g></g><g><path d="M116.65733,196.86798v-66h66v66z" fill="#0a5fce" stroke-width="NaN"/><path d="M139.5944,196.95322l-22.95814,-36.94826l24.83401,-13.7221l31.70814,50.44826z" fill="#0070ff" stroke-width="0"/><g stroke-width="0"><path d="M116.15733,140.86798v-10.5h66.5v10.5z" fill="#49b6ff"/><path d="M116.15733,150.86798v-10.5h66.5v10.5z" fill="#0063ce"/><path d="M116.15733,161.36798v-10.5h66.5v10.5z" fill="#0007b1"/></g></g><g><path d="M313.15733,196.86798v-66h66v66z" fill="#0a5fce" stroke-width="NaN"/><path d="M336.0944,196.95322l-22.95814,-36.94826l24.83402,-13.7221l31.70814,50.44826z" fill="#0070ff" stroke-width="0"/><g stroke-width="0"><path d="M312.65733,140.86798v-10.5h66.5v10.5z" fill="#49b6ff"/><path d="M312.65733,150.86798v-10.5h66.5v10.5z" fill="#0063ce"/><path d="M312.65733,161.36798v-10.5h66.5v10.5z" fill="#0007b1"/></g></g><g><path d="M182.16728,196.86798v-66h66v66z" fill="#0a5fce" stroke-width="NaN"/><path d="M205.10435,196.95322l-22.95814,-36.94826l24.83402,-13.7221l31.70814,50.44826z" fill="#0070ff" stroke-width="0"/><g stroke-width="0"><path d="M181.66728,140.86798v-10.5h66.5v10.5z" fill="#49b6ff"/><path d="M181.66728,150.86798v-10.5h66.5v10.5z" fill="#0063ce"/><path d="M181.66728,161.36798v-10.5h66.5v10.5z" fill="#0007b1"/></g></g><g><path d="M247.66728,196.86798v-66h66v66z" fill="#0a5fce" stroke-width="NaN"/><path d="M270.60435,196.95322l-22.95814,-36.94826l24.83402,-13.7221l31.70814,50.44826z" fill="#0070ff" stroke-width="0"/><g stroke-width="0"><path d="M247.16728,140.86798v-10.5h66.5v10.5z" fill="#49b6ff"/><path d="M247.16728,150.86798v-10.5h66.5v10.5z" fill="#0063ce"/><path d="M247.16728,161.36798v-10.5h66.5v10.5z" fill="#0007b1"/></g></g><g><path d="M-12.40057,97.43032v-66h66v66z" fill="#0a5fce" stroke-width="NaN"/><path d="M10.5365,97.51547l-22.95814,-36.94826l24.83402,-13.7221l31.70814,50.44826z" fill="#0070ff" stroke-width="0"/><g stroke-width="0"><path d="M-12.90057,41.43027v-10.5h66.5v10.5z" fill="#49b6ff"/><path d="M-12.90057,51.43027v-10.5h66.5v10.5z" fill="#0063ce"/><path d="M-12.90057,61.93027v-10.5h66.5v10.5z" fill="#0007b1"/></g></g><g><g><path d="M-12.40057,162.59693v-66h66v66z" fill="#0a5fce" stroke-width="NaN"/><path d="M53.5365,160.43212l-42.70814,-63.69826l24.83401,-13.7221l18.17212,28.46335l-0.34004,22.08184z" fill="#0070ff" stroke-width="0"/></g><path d="M-12.12365,110.5118l36.70814,52.19826l-33.58402,-0.02789l-3.42212,-3.21335l0.34004,-22.08184z" data-paper-data="{&quot;index&quot;:null}" fill="#0070ff" stroke-width="0"/></g><g><path d="M412.59503,329.77034v-66h66v66z" fill="#0a5fce" stroke-width="NaN"/><path d="M435.5321,329.85546l-22.95814,-36.94826l24.83402,-13.7221l31.70814,50.44826z" fill="#0070ff" stroke-width="0"/><g stroke-width="0"><path d="M412.09503,273.77029v-10.5h66.5v10.5z" fill="#49b6ff"/><path d="M412.09503,283.77029v-10.5h66.5v10.5z" fill="#0063ce"/><path d="M412.09503,294.27034v-10.5h66.5v10.5z" fill="#0007b1"/></g></g><g><path d="M162.22729,161.21913v-66h66v66z" fill="#0a5fce" stroke-width="NaN"/><path d="M185.16436,161.30437l-22.95814,-36.94826l24.83402,-13.7221l31.70814,50.44826z" fill="#0070ff" stroke-width="0"/><g stroke-width="0"><path d="M161.72729,105.21913v-10.5h66.5v10.5z" fill="#49b6ff"/><path d="M161.72729,115.21913v-10.5h66.5v10.5z" fill="#0063ce"/><path d="M161.72729,125.71913v-10.5h66.5v10.5z" fill="#0007b1"/></g></g><g><path d="M227.72729,161.21913v-66h66v66z" fill="#0a5fce" stroke-width="NaN"/><path d="M250.66436,161.30437l-22.95814,-36.94826l24.83402,-13.7221l31.70814,50.44826z" fill="#0070ff" stroke-width="0"/><g stroke-width="0"><path d="M227.22729,105.21913v-10.5h66.5v10.5z" fill="#0a5fce"/><path d="M227.22729,115.21913v-10.5h66.5v10.5z" fill="#49b6ff"/><path d="M227.22729,125.71913v-10.5h66.5v10.5z" fill="#0007b1"/></g></g></g></g></svg>