<svg version="1.1" xmlns="http://www.w3.org/2000/svg" xmlns:xlink="http://www.w3.org/1999/xlink" width="57.77643" height="44.33499" viewBox="0,0,57.77643,44.33499"><g transform="translate(-210.85746,-182.775)"><g data-paper-data="{&quot;isPaintingLayer&quot;:true}" fill-rule="nonzero" stroke-linejoin="miter" stroke-miterlimit="10" stroke-dasharray="" stroke-dashoffset="0" style="mix-blend-mode: normal"><g fill="none" stroke="#9f9f9f" stroke-width="6" stroke-linecap="round"><path d="M220.60518,209.1077l7.67284,3.91423"/><path d="M220.88345,208.78123l7.67283,-3.91423" data-paper-data="{&quot;index&quot;:null}"/><path d="M257.36174,209.41255l-7.67284,3.91423" data-paper-data="{&quot;index&quot;:null}"/><path d="M257.08349,209.08607l-7.67283,-3.91423" data-paper-data="{&quot;index&quot;:null}"/></g><path d="M212.7227,201.05111c0,-4.11648 0,-11.07488 0,-13.37828c0,-1.46095 2.1696,-3.14783 4.45557,-3.14783c6.29562,0 36.00324,0 46.23375,0c2.17685,0 3.47187,1.93365 3.47187,3.54131c0,2.22809 0,8.36475 0,12.39458c0,2.17624 -1.32869,3.73805 -2.88165,3.73805c-5.6169,0 -39.29943,0 -48.79136,0c-1.57865,0 -2.48817,-1.28199 -2.48817,-3.14783z" fill="#ffce00" stroke="#000000" stroke-width="3.5" stroke-linecap="butt"/><path d="M240.04048,203.43189l5.91495,-19.82831l16.79396,1.09088l-6.50517,20.22179z" fill="#ffe373" stroke="none" stroke-width="0" stroke-linecap="butt"/><path d="M228.51086,202.32358l5.34964,-19.22826l6.21367,2.08837l-5.63555,19.58137z" fill="#ffe373" stroke="none" stroke-width="0" stroke-linecap="butt"/><path d="M212.60747,222.88512c0,-2.1123 0,-5.68287 0,-6.86482c0,-0.74966 2.1696,-1.61525 4.45557,-1.61525c6.29562,0 36.00324,0 46.23375,0c2.17685,0 3.47187,0.99222 3.47187,1.81716c0,1.1433 0,4.29222 0,6.36005c0,1.1167 -1.32869,1.91811 -2.88165,1.91811c-5.6169,0 -39.29943,0 -48.79136,0c-1.57865,0 -2.48817,-0.65783 -2.48817,-1.61525z" fill="#ffce00" stroke="#000000" stroke-width="3.5" stroke-linecap="butt"/><path d="M239.92525,224.10678l5.91495,-10.17453l16.79396,0.55976l-6.50517,10.37643z" fill="#ffe373" stroke="none" stroke-width="0" stroke-linecap="butt"/><path d="M228.39563,223.53807l5.34964,-9.86662l6.21367,1.07161l-5.63555,10.04782z" fill="#ffe373" stroke="none" stroke-width="0" stroke-linecap="butt"/><path d="M212.7227,201.05111c0,-4.11649 0,-11.07487 0,-13.37828c0,-1.46095 2.1696,-3.14783 4.45556,-3.14783c6.29562,0 36.00324,0 46.23375,0c2.17685,0 3.47187,1.93365 3.47187,3.5413c0,2.22809 0,8.36475 0,12.39458c0,2.17624 -1.32869,3.73806 -2.88166,3.73806c-5.6169,0 -39.29942,0 -48.79136,0c-1.57865,0 -2.48817,-1.28199 -2.48817,-3.14784z" fill="none" stroke="#000000" stroke-width="3.5" stroke-linecap="butt"/><path d="M212.60747,222.88512c0,-2.1123 0,-5.68286 0,-6.86482c0,-0.74966 2.1696,-1.61525 4.45556,-1.61525c6.29562,0 36.00324,0 46.23375,0c2.17685,0 3.47187,0.99222 3.47187,1.81715c0,1.1433 0,4.29222 0,6.36005c0,1.1167 -1.32869,1.91812 -2.88166,1.91812c-5.6169,0 -39.29942,0 -48.79136,0c-1.57865,0 -2.48817,-0.65783 -2.48817,-1.61526z" fill="none" stroke="#000000" stroke-width="3.5" stroke-linecap="butt"/></g></g></svg>