<svg version="1.1" xmlns="http://www.w3.org/2000/svg" xmlns:xlink="http://www.w3.org/1999/xlink" width="350.28625" height="41.8465" viewBox="0,0,350.28625,41.8465"><g transform="translate(-68.18513,-261.7865)"><g data-paper-data="{&quot;isPaintingLayer&quot;:true}" fill-rule="nonzero" stroke="none" stroke-width="0" stroke-linecap="butt" stroke-linejoin="miter" stroke-miterlimit="10" stroke-dasharray="" stroke-dashoffset="0" style="mix-blend-mode: normal"><g><path d="M87.21626,300.52641v-38.73991l19.35336,38.73991z" fill="#c9c9c9"/><path d="M68.18513,300.59274l19.35337,-38.73991v38.73991z" data-paper-data="{&quot;index&quot;:null}" fill="#c0c0c0"/></g><g><path d="M124.11802,300.56668v-38.73991l19.35336,38.73991z" fill="#c9c9c9"/><path d="M105.0869,300.633l19.35337,-38.73991v38.73991z" data-paper-data="{&quot;index&quot;:null}" fill="#c0c0c0"/></g><g><path d="M220.21626,303.52641v-38.73991l19.35336,38.73991z" fill="#c9c9c9"/><path d="M201.18513,303.59274l19.35337,-38.73991v38.73991z" data-paper-data="{&quot;index&quot;:null}" fill="#c0c0c0"/></g><g><path d="M257.11802,303.56668v-38.73991l19.35336,38.73991z" fill="#c9c9c9"/><path d="M238.0869,303.633l19.35337,-38.73991v38.73991z" data-paper-data="{&quot;index&quot;:null}" fill="#c0c0c0"/></g><g><path d="M362.21626,302.52641v-38.73991l19.35336,38.73991z" fill="#c9c9c9"/><path d="M343.18513,302.59274l19.35337,-38.73991v38.73991z" data-paper-data="{&quot;index&quot;:null}" fill="#c0c0c0"/></g><g><path d="M399.11802,302.56668v-38.73991l19.35336,38.73991z" fill="#c9c9c9"/><path d="M380.0869,302.633l19.35337,-38.73991v38.73991z" data-paper-data="{&quot;index&quot;:null}" fill="#c0c0c0"/></g></g></g></svg>