<svg version="1.1" xmlns="http://www.w3.org/2000/svg" xmlns:xlink="http://www.w3.org/1999/xlink" width="525.23506" height="386.53951" viewBox="0,0,525.23506,386.53951"><g transform="translate(26.0625,-43.66808)"><g data-paper-data="{&quot;isPaintingLayer&quot;:true}" fill-rule="nonzero" stroke="none" stroke-linecap="butt" stroke-linejoin="miter" stroke-miterlimit="10" stroke-dasharray="" stroke-dashoffset="0" style="mix-blend-mode: normal"><g><g><path d="M-25.72916,430.09451v-66h66v66z" fill="#0a5fce" stroke-width="NaN"/><path d="M40.2079,427.9297l-42.70814,-63.69826l24.83402,-13.7221l18.17211,28.46335l-0.34004,22.08184z" fill="#0070ff" stroke-width="0"/></g><path d="M-25.45225,378.00933l36.70814,52.19826l-33.58401,-0.02789l-3.42212,-3.21335l0.34004,-22.08184z" data-paper-data="{&quot;index&quot;:null}" fill="#0070ff" stroke-width="0"/></g><g><path d="M-25.5625,364.92784v-66h66v66z" fill="#0a5fce" stroke-width="NaN"/><path d="M-2.62543,365.01303l-22.95814,-36.94826l24.83402,-13.7221l31.70814,50.44826z" fill="#0070ff" stroke-width="0"/><g stroke-width="0"><path d="M-26.0625,308.92784v-10.5h66.5v10.5z" fill="#49b6ff"/><path d="M-26.0625,318.92784v-10.5h66.5v10.5z" fill="#0063ce"/><path d="M-26.0625,329.42784v-10.5h66.5v10.5z" fill="#0007b1"/></g></g><g><path d="M39.9375,364.92784v-66h66v66z" fill="#0a5fce" stroke-width="NaN"/><path d="M62.87457,365.01303l-22.95814,-36.94826l24.83401,-13.7221l31.70814,50.44826z" fill="#0070ff" stroke-width="0"/><g stroke-width="0"><path d="M39.4375,308.92784v-10.5h66.5v10.5z" fill="#49b6ff"/><path d="M39.4375,318.92784v-10.5h66.5v10.5z" fill="#0063ce"/><path d="M39.4375,329.42784v-10.5h66.5v10.5z" fill="#0007b1"/></g></g><g><g><path d="M39.9375,430.09451v-66h66v66z" fill="#0a5fce" stroke-width="NaN"/><path d="M105.87457,427.9297l-42.70814,-63.69826l24.83402,-13.7221l18.17211,28.46335l-0.34004,22.08184z" fill="#0070ff" stroke-width="0"/></g><path d="M40.21442,378.00933l36.70814,52.19826l-33.58401,-0.02789l-3.42212,-3.21335l0.34004,-22.08184z" data-paper-data="{&quot;index&quot;:null}" fill="#0070ff" stroke-width="0"/></g><g><g><path d="M105.27084,430.09451v-66h66v66z" fill="#0a5fce" stroke-width="NaN"/><path d="M171.2079,427.9297l-42.70814,-63.69826l24.83401,-13.7221l18.17211,28.46335l-0.34004,22.08184z" fill="#0070ff" stroke-width="0"/></g><path d="M105.54775,378.00933l36.70814,52.19826l-33.58401,-0.02789l-3.42211,-3.21335l0.34004,-22.08184z" data-paper-data="{&quot;index&quot;:null}" fill="#0070ff" stroke-width="0"/></g><g><path d="M105.4375,364.92784v-66h66v66z" fill="#0a5fce" stroke-width="NaN"/><path d="M128.37457,365.01303l-22.95814,-36.94826l24.83401,-13.7221l31.70814,50.44826z" fill="#0070ff" stroke-width="0"/><g stroke-width="0"><path d="M104.9375,308.92784v-10.5h66.5v10.5z" fill="#49b6ff"/><path d="M104.9375,318.92784v-10.5h66.5v10.5z" fill="#0063ce"/><path d="M104.9375,329.42784v-10.5h66.5v10.5z" fill="#0007b1"/></g></g><g><path d="M170.9375,364.92784v-66h66v66z" fill="#0a5fce" stroke-width="NaN"/><path d="M193.87457,365.01303l-22.95814,-36.94826l24.83401,-13.7221l31.70814,50.44826z" fill="#0070ff" stroke-width="0"/><g stroke-width="0"><path d="M170.4375,308.92784v-10.5h66.5v10.5z" fill="#49b6ff"/><path d="M170.4375,318.92784v-10.5h66.5v10.5z" fill="#0063ce"/><path d="M170.4375,329.42784v-10.5h66.5v10.5z" fill="#0007b1"/></g></g><g><g><path d="M170.9375,430.09451v-66h66v66z" fill="#0a5fce" stroke-width="NaN"/><path d="M236.87457,427.9297l-42.70814,-63.69826l24.83402,-13.7221l18.17211,28.46335l-0.34004,22.08184z" fill="#0070ff" stroke-width="0"/></g><path d="M171.21442,378.00933l36.70814,52.19826l-33.58402,-0.02789l-3.42211,-3.21335l0.34004,-22.08184z" data-paper-data="{&quot;index&quot;:null}" fill="#0070ff" stroke-width="0"/></g><g><g><path d="M367.27084,430.09451v-66h66v66z" fill="#0a5fce" stroke-width="NaN"/><path d="M433.2079,427.9297l-42.70814,-63.69826l24.83401,-13.7221l18.17212,28.46335l-0.34004,22.08184z" fill="#0070ff" stroke-width="0"/></g><path d="M367.54775,378.00933l36.70814,52.19826l-33.58402,-0.02789l-3.42211,-3.21335l0.34004,-22.08184z" data-paper-data="{&quot;index&quot;:null}" fill="#0070ff" stroke-width="0"/></g><g><path d="M367.4375,364.92784v-66h66v66z" fill="#0a5fce" stroke-width="NaN"/><path d="M390.37457,365.01303l-22.95814,-36.94826l24.83402,-13.7221l31.70814,50.44826z" fill="#0070ff" stroke-width="0"/><g stroke-width="0"><path d="M366.9375,308.92784v-10.5h66.5v10.5z" fill="#49b6ff"/><path d="M366.9375,318.92784v-10.5h66.5v10.5z" fill="#0063ce"/><path d="M366.9375,329.42784v-10.5h66.5v10.5z" fill="#0007b1"/></g></g><g><path d="M432.9375,364.92784v-66h66v66z" fill="#0a5fce" stroke-width="NaN"/><path d="M455.87457,365.01303l-22.95814,-36.94826l24.83402,-13.7221l31.70814,50.44826z" fill="#0070ff" stroke-width="0"/><g stroke-width="0"><path d="M432.4375,308.92784v-10.5h66.5v10.5z" fill="#49b6ff"/><path d="M432.4375,318.92784v-10.5h66.5v10.5z" fill="#0063ce"/><path d="M432.4375,329.42784v-10.5h66.5v10.5z" fill="#0007b1"/></g></g><g><g><path d="M432.9375,430.09451v-66h66v66z" fill="#0a5fce" stroke-width="NaN"/><path d="M498.87457,427.9297l-42.70814,-63.69826l24.83401,-13.7221l18.17212,28.46335l-0.34004,22.08184z" fill="#0070ff" stroke-width="0"/></g><path d="M433.21442,378.00933l36.70814,52.19826l-33.58402,-0.02789l-3.42212,-3.21335l0.34004,-22.08184z" data-paper-data="{&quot;index&quot;:null}" fill="#0070ff" stroke-width="0"/></g><g><g><path d="M236.28079,430.09451v-66h66v66z" fill="#0a5fce" stroke-width="NaN"/><path d="M302.21785,427.9297l-42.70814,-63.69826l24.83401,-13.7221l18.17212,28.46335l-0.34004,22.08184z" fill="#0070ff" stroke-width="0"/></g><path d="M236.5577,378.00933l36.70814,52.19826l-33.58402,-0.02789l-3.42211,-3.21335l0.34004,-22.08184z" data-paper-data="{&quot;index&quot;:null}" fill="#0070ff" stroke-width="0"/></g><g><path d="M236.44745,364.92784v-66h66v66z" fill="#0a5fce" stroke-width="NaN"/><path d="M259.38452,365.01303l-22.95814,-36.94826l24.83402,-13.7221l31.70814,50.44826z" fill="#0070ff" stroke-width="0"/><g stroke-width="0"><path d="M235.94745,308.92784v-10.5h66.5v10.5z" fill="#49b6ff"/><path d="M235.94745,318.92784v-10.5h66.5v10.5z" fill="#0063ce"/><path d="M235.94745,329.42784v-10.5h66.5v10.5z" fill="#0007b1"/></g></g><g><path d="M301.94745,364.92784v-66h66v66z" fill="#0a5fce" stroke-width="NaN"/><path d="M324.88452,365.01303l-22.95814,-36.94826l24.83402,-13.7221l31.70814,50.44826z" fill="#0070ff" stroke-width="0"/><g stroke-width="0"><path d="M301.44745,308.92784v-10.5h66.5v10.5z" fill="#49b6ff"/><path d="M301.44745,318.92784v-10.5h66.5v10.5z" fill="#0063ce"/><path d="M301.44745,329.42784v-10.5h66.5v10.5z" fill="#0007b1"/></g></g><g><g><path d="M301.94745,430.09451v-66h66v66z" fill="#0a5fce" stroke-width="NaN"/><path d="M367.88452,427.9297l-42.70814,-63.69826l24.83401,-13.7221l18.17212,28.46335l-0.34004,22.08184z" fill="#0070ff" stroke-width="0"/></g><path d="M302.22437,378.00933l36.70814,52.19826l-33.58402,-0.02789l-3.42212,-3.21335l0.34004,-22.08184z" data-paper-data="{&quot;index&quot;:null}" fill="#0070ff" stroke-width="0"/></g><g><path d="M210.10267,248.30622v-66h66v66z" fill="#0a5fce" stroke-width="NaN"/><path d="M233.03974,248.39141l-22.95814,-36.94826l24.83401,-13.7221l31.70814,50.44826z" fill="#0070ff" stroke-width="0"/><g stroke-width="0"><path d="M209.60267,192.30622v-10.5h66.5v10.5z" fill="#49b6ff"/><path d="M209.60267,202.30622v-10.5h66.5v10.5z" fill="#0063ce"/><path d="M209.60267,212.80622v-10.5h66.5v10.5z" fill="#0007b1"/></g></g><g><path d="M275.60267,248.30622v-66h66v66z" fill="#0a5fce" stroke-width="NaN"/><path d="M298.53974,248.39141l-22.95814,-36.94826l24.83401,-13.7221l31.70814,50.44826z" fill="#0070ff" stroke-width="0"/><g stroke-width="0"><path d="M275.10267,192.30622v-10.5h66.5v10.5z" fill="#49b6ff"/><path d="M275.10267,202.30622v-10.5h66.5v10.5z" fill="#0063ce"/><path d="M275.10267,212.80622v-10.5h66.5v10.5z" fill="#0007b1"/></g></g><g><path d="M341.10267,248.30622v-66h66v66z" fill="#0a5fce" stroke-width="NaN"/><path d="M364.03974,248.39141l-22.95814,-36.94826l24.83401,-13.7221l31.70814,50.44826z" fill="#0070ff" stroke-width="0"/><g stroke-width="0"><path d="M340.60267,192.30622v-10.5h66.5v10.5z" fill="#49b6ff"/><path d="M340.60267,202.30622v-10.5h66.5v10.5z" fill="#0063ce"/><path d="M340.60267,212.80622v-10.5h66.5v10.5z" fill="#0007b1"/></g></g><g><path d="M339.04505,110.16808v-66h66v66z" fill="#0a5fce" stroke-width="NaN"/><path d="M361.98212,110.25327l-22.95814,-36.94826l24.83402,-13.7221l31.70814,50.44826z" fill="#0070ff" stroke-width="0"/><g stroke-width="0"><path d="M338.54505,54.16808v-10.5h66.5v10.5z" fill="#49b6ff"/><path d="M338.54505,64.16808v-10.5h66.5v10.5z" fill="#0063ce"/><path d="M338.54505,74.66808v-10.5h66.5v10.5z" fill="#0007b1"/></g></g><g><path d="M75.71622,317.37529v-66h66v66z" fill="#0a5fce" stroke-width="NaN"/><path d="M98.65329,317.46048l-22.95814,-36.94826l24.83402,-13.7221l31.70814,50.44826z" fill="#0070ff" stroke-width="0"/><g stroke-width="0"><path d="M75.21622,261.37529v-10.5h66.5v10.5z" fill="#49b6ff"/><path d="M75.21622,271.37529v-10.5h66.5v10.5z" fill="#0063ce"/><path d="M75.21622,281.87529v-10.5h66.5v10.5z" fill="#0007b1"/></g></g></g></g></svg>