<svg version="1.1" xmlns="http://www.w3.org/2000/svg" xmlns:xlink="http://www.w3.org/1999/xlink" width="90.14744" height="106.53789" viewBox="0,0,90.14744,106.53789"><g transform="translate(-194.92628,-126.73107)"><g data-paper-data="{&quot;isPaintingLayer&quot;:true}" fill-rule="nonzero" stroke-linecap="butt" stroke-linejoin="miter" stroke-miterlimit="10" stroke-dasharray="" stroke-dashoffset="0" style="mix-blend-mode: normal"><path d="M194.92628,233.26896v-106.53789h90.14744v106.53789z" fill="none" stroke="none" stroke-width="NaN"/><g><path d="M243.17978,204.30585l-7.5052,-16.3656l7.73319,-3.54642l7.5052,16.3656z" fill="#8a5f00" stroke="#000000" stroke-width="1.5"/><path d="M233.31372,187.06394c0,0 -3.99818,-15.36314 -7.29672,-22.55583c-2.68174,-5.8477 -11.05473,-18.92332 -13.65321,-24.22468c-0.65093,-1.328 -0.29888,-2.06301 0.77761,-1.97805c2.26365,0.17864 6.00562,0.47392 7.43371,0.58662c1.09341,0.08628 2.75543,0.63523 3.20827,1.39682c2.07004,3.48149 8.44009,13.5467 11.15812,19.47356c3.34012,7.28334 8.08365,22.84792 8.08365,22.84792z" fill="#c9c9c9" stroke="#000000" stroke-width="1.5"/><path d="M239.42736,193.57527l-1.23712,-2.69762l5.85715,-2.68607l1.23712,2.69762z" fill="#d18f00" stroke="none" stroke-width="0"/><path d="M241.6545,198.54184l-1.23712,-2.69763l5.85715,-2.68607l1.23712,2.69763z" fill="#d18f00" stroke="none" stroke-width="0"/><path d="M243.81557,203.15532l-1.01922,-2.22248l5.85715,-2.68607l1.01922,2.22248z" fill="#d18f00" stroke="none" stroke-width="0"/><path d="M233.54998,187.15165c0,0 -5.13504,-14.84179 -8.43358,-22.03447c-2.68174,-5.8477 -10.16811,-19.32993 -12.70419,-24.65989c-0.63529,-1.33517 -0.54034,-1.95229 0.14908,-1.68983c1.44971,0.55191 3.95125,-0.04794 4.86585,0.30024c0.70025,0.26659 1.73109,2.56899 2.14527,3.3483c1.89341,3.56249 7.60903,13.92781 10.32707,19.85467c3.34012,7.28334 8.97692,22.43828 8.97692,22.43828z" fill="#989898" stroke="none" stroke-width="0"/><path d="M233.33204,187.00502c0,0 -3.99818,-15.36314 -7.29672,-22.55583c-2.68174,-5.8477 -11.05474,-18.92333 -13.65321,-24.22468c-0.65093,-1.328 -0.29889,-2.06302 0.77762,-1.97807c2.26365,0.17864 6.00563,0.47393 7.43371,0.58662c1.0934,0.08628 2.75543,0.63523 3.20826,1.39682c2.07004,3.48149 8.44009,13.5467 11.15812,19.47356c3.34012,7.28334 8.08369,22.84792 8.08369,22.84792z" fill="none" stroke="#000000" stroke-width="1.5"/><path d="M230.03345,191.77691l-2.39177,-5.21541l19.60274,-8.98975l2.39177,5.21541z" fill="#382700" stroke="#000000" stroke-width="1.5"/></g></g></g></svg>