<svg version="1.1" xmlns="http://www.w3.org/2000/svg" xmlns:xlink="http://www.w3.org/1999/xlink" width="90.14744" height="106.53789" viewBox="0,0,90.14744,106.53789"><g transform="translate(-194.92628,-126.73107)"><g data-paper-data="{&quot;isPaintingLayer&quot;:true}" fill-rule="nonzero" stroke-linecap="butt" stroke-linejoin="miter" stroke-miterlimit="10" stroke-dasharray="" stroke-dashoffset="0" style="mix-blend-mode: normal"><path d="M194.92628,233.26896v-106.53789h90.14744v106.53789z" fill="none" stroke="none" stroke-width="NaN"/><g><path d="M231.47375,199.06402l8.40844,-15.9204l7.52282,3.97322l-8.40844,15.9204z" fill="#8a5f00" stroke="#000000" stroke-width="1.5"/><path d="M239.13925,180.73746c0,0 9.74944,-12.52837 13.44495,-19.52539c3.00447,-5.68862 8.27506,-20.29341 10.89693,-25.58324c0.65678,-1.32512 1.45416,-1.49359 2.04244,-0.58806c1.23706,1.90412 3.28203,5.05177 4.06246,6.25304c0.59754,0.91973 1.17447,2.57227 0.84626,3.39528c-1.50038,3.76228 -5.60333,14.94493 -8.64848,20.71056c-3.74209,7.08521 -13.19731,20.32742 -13.19731,20.32742z" fill="#c9c9c9" stroke="#000000" stroke-width="1.5"/><path d="M237.69875,189.55217l1.386,-2.62423l5.69781,3.00933l-1.386,2.62423z" fill="#d18f00" stroke="none" stroke-width="0"/><path d="M235.11622,194.34356l1.38601,-2.62424l5.69781,3.00933l-1.38601,2.62424z" fill="#d18f00" stroke="none" stroke-width="0"/><path d="M232.7735,198.86751l1.14188,-2.16202l5.69781,3.00933l-1.14188,2.16202z" fill="#d18f00" stroke="none" stroke-width="0"/><path d="M239.21359,180.97827c0,0 8.64352,-13.11248 12.33902,-20.10949c3.00447,-5.68862 9.13756,-19.83788 11.82014,-25.09564c0.67199,-1.31708 1.21927,-1.61764 1.43102,-0.911c0.44526,1.48594 2.44465,3.10457 2.72556,4.04202c0.21507,0.71776 -0.98312,2.93766 -1.34893,3.74081c-1.67221,3.67152 -6.41178,14.51794 -9.45691,20.28357c-3.74209,7.08521 -12.32836,20.78637 -12.32836,20.78637z" fill="#989898" stroke="none" stroke-width="0"/><path d="M239.19715,180.71611c0,0 9.74944,-12.52837 13.44495,-19.52539c3.00447,-5.68862 8.27505,-20.29343 10.89693,-25.58324c0.65678,-1.32512 1.45415,-1.4936 2.04246,-0.58807c1.23706,1.90412 3.28202,5.05178 4.06246,6.25304c0.59753,0.91973 1.17447,2.57227 0.84625,3.39527c-1.50038,3.76228 -5.60333,14.94493 -8.64848,20.71056c-3.74209,7.08521 -13.19728,20.32745 -13.19728,20.32745z" fill="none" stroke="#000000" stroke-width="1.5"/><path d="M233.40341,181.00642l2.67961,-5.07354l19.06949,10.07164l-2.67961,5.07354z" fill="#382700" stroke="#000000" stroke-width="1.5"/></g></g></g></svg>