<svg version="1.1" xmlns="http://www.w3.org/2000/svg" xmlns:xlink="http://www.w3.org/1999/xlink" width="90.14744" height="106.53789" viewBox="0,0,90.14744,106.53789"><g transform="translate(-194.92628,-126.73105)"><g data-paper-data="{&quot;isPaintingLayer&quot;:true}" fill-rule="nonzero" stroke-linecap="butt" stroke-linejoin="miter" stroke-miterlimit="10" stroke-dasharray="" stroke-dashoffset="0" style="mix-blend-mode: normal"><path d="M194.92628,233.26895v-106.53789h90.14744v106.53789z" fill="none" stroke="none" stroke-width="NaN"/><g><path d="M247.39194,205.81004l-11.06413,-14.20373l6.71165,-5.22811l11.06413,14.20373z" fill="#8a5f00" stroke="#000000" stroke-width="1.5"/><path d="M233.82878,191.2958c0,0 -7.42061,-14.03375 -12.2833,-20.27629c-3.9534,-5.07523 -15.10631,-15.87761 -18.85317,-20.44024c-0.9386,-1.14294 -0.76482,-1.93917 0.3024,-2.10379c2.24415,-0.34617 5.95387,-0.91842 7.36966,-1.13681c1.08399,-0.16722 2.82767,-0.01476 3.44335,0.62243c2.81448,2.91283 11.32643,11.24545 15.33334,16.38938c4.92398,6.32122 13.11629,20.37979 13.11629,20.37979z" fill="#c9c9c9" stroke="#000000" stroke-width="1.5"/><path d="M241.27475,196.2285l-1.82376,-2.34127l5.08343,-3.95979l1.82376,2.34127z" fill="#d18f00" stroke="none" stroke-width="0"/><path d="M244.58329,200.5506l-1.82376,-2.34128l5.08343,-3.95979l1.82376,2.34128z" fill="#d18f00" stroke="none" stroke-width="0"/><path d="M247.74641,204.54423l-1.50253,-1.92889l5.08343,-3.95979l1.50253,1.92889z" fill="#d18f00" stroke="none" stroke-width="0"/><path d="M234.07887,191.32689c0,0 -8.40729,-13.26517 -13.26998,-19.50771c-3.9534,-5.07523 -14.33681,-16.47703 -18.02951,-21.08183c-0.92503,-1.15351 -0.97439,-1.77594 -0.24311,-1.67888c1.53773,0.20411 3.83456,-0.95438 4.80468,-0.82562c0.74276,0.09859 2.27496,2.1026 2.8571,2.76592c2.66118,3.03224 10.60515,11.80729 14.61207,16.95122c4.92398,6.32122 13.89156,19.7759 13.89156,19.7759z" fill="#989898" stroke="none" stroke-width="0"/><path d="M233.83307,191.23425c0,0 -7.42061,-14.03375 -12.2833,-20.27629c-3.9534,-5.07523 -15.10632,-15.87762 -18.85317,-20.44024c-0.9386,-1.14294 -0.76483,-1.93918 0.3024,-2.10381c2.24415,-0.34617 5.95388,-0.91841 7.36966,-1.13681c1.08398,-0.16721 2.82767,-0.01476 3.44334,0.62243c2.81448,2.91283 11.32643,11.24545 15.33334,16.38938c4.92398,6.32122 13.11632,20.37978 13.11632,20.37978z" fill="none" stroke="#000000" stroke-width="1.5"/><path d="M231.71895,196.63629l-3.52593,-4.52646l17.01325,-13.25264l3.52593,4.52646z" fill="#382700" stroke="#000000" stroke-width="1.5"/></g></g></g></svg>