<svg version="1.1" xmlns="http://www.w3.org/2000/svg" xmlns:xlink="http://www.w3.org/1999/xlink" width="202.27268" height="270.27027" viewBox="0,0,202.27268,270.27027"><g transform="translate(-135.32492,-44.86487)"><g data-paper-data="{&quot;isPaintingLayer&quot;:true}" fill-rule="nonzero" stroke-linejoin="miter" stroke-miterlimit="10" stroke-dasharray="" stroke-dashoffset="0" style="mix-blend-mode: normal"><path d="M225.59693,220.00366v-78.75" fill="none" stroke="#000000" stroke-width="5" stroke-linecap="round"/><path d="M212.34693,222.75366c0,0 0,-4.32612 0,-7.07599c0,-2.03919 2.949,-5.32706 5.32817,-5.32706c3.07244,0 11.11839,0 16.55961,0c3.10529,0 5.36222,3.28787 5.36222,5.32706c0,2.74987 0,7.07599 0,7.07599z" fill="#ffe200" stroke="#000000" stroke-width="5" stroke-linecap="butt"/><path d="M218.47193,135.62866c0,-4.0731 3.3019,-7.375 7.375,-7.375c4.0731,0 7.375,3.3019 7.375,7.375c0,4.0731 -3.3019,7.375 -7.375,7.375c-4.0731,0 -7.375,-3.3019 -7.375,-7.375z" fill="#ffe200" stroke="#000000" stroke-width="5" stroke-linecap="butt"/><path d="M225.70161,180.75658v-34.5c0,0 34.53986,0 40.5,0c1.68838,0 3.25,1.9812 3.25,3.89516c0,4.15404 0,20.22368 0,27.26613c0,2.05289 -1.16259,3.33871 -2.5,3.33871c-5.43262,0 -41.25,0 -41.25,0z" fill="#10e400" stroke="#000000" stroke-width="5" stroke-linecap="butt"/><path d="M142.4024,315.13514v-270.27027h195.1952v270.27027z" fill="none" stroke="none" stroke-width="0" stroke-linecap="butt"/><path d="M141.57492,179.98269c0,-49.98208 40.51845,-90.50052 90.50052,-90.50052c49.98208,0 90.50052,40.51845 90.50052,90.50052c0,49.98208 -40.51845,90.50052 -90.50052,90.50052c-49.98208,0 -90.50052,-40.51845 -90.50052,-90.50052z" fill="none" stroke="#ffffff" stroke-width="12.5" stroke-linecap="butt"/></g></g></svg>